<svg width="193" height="27" viewBox="0 0 193 27" version="1.1" xmlns="http://www.w3.org/2000/svg" xmlns:xlink="http://www.w3.org/1999/xlink" xmlns:figma="http://www.figma.com/figma/ns">
<title>saltdKurry</title>
<desc>Created using Figma</desc>
<g id="Canvas" transform="translate(740 277)" figma:type="canvas">
<g id="saltdKurry" style="mix-blend-mode:normal;isolation:isolate;" filter="url(#filter0_d)" figma:type="text">
<use xlink:href="#path0_fill" transform="translate(-736 -282)" fill="#F05F40" style="mix-blend-mode:darken;"/>
</g>
</g>
<defs>
<filter id="filter0_d" filterUnits="userSpaceOnUse" x="-740" y="-277" width="193" height="27" color-interpolation-filters="sRGB">
<feFlood flood-opacity="0" result="BackgroundImageFix"/>
<desc>type="dropShadow" x="0" y="4" size="4" spread="0" color="0,0,0,0.25" blend="normal"</desc>
<feColorMatrix in="SourceAlpha" type="matrix" values="0 0 0 0 0 0 0 0 0 0 0 0 0 0 0 0 0 0 255 0"/>
<feOffset dx="0" dy="4"/>
<feGaussianBlur stdDeviation="2"/>
<feColorMatrix type="matrix" values="0 0 0 0 0 0 0 0 0 0 0 0 0 0 0 0 0 0 0.25 0"/>
<feBlend mode="normal" in2="BackgroundImageFix" result="effect1_dropShadow"/>
<feBlend mode="normal" in="SourceGraphic" in2="effect1_dropShadow" result="shape"/>
</filter>
<path id="path0_fill" d="M 16.16 11.7C 16.2 12.1 16.22 12.6067 16.22 13.22C 16.22 13.82 16.1 14.56 15.86 15.44C 15.62 16.3067 15.1867 17.0733 14.56 17.74C 13.28 19.1133 11.52 19.8 9.28 19.8C 6.56 19.8 4.41333 19.1333 2.84 17.8C 1.26667 16.4533 0.48 14.7 0.48 12.54C 0.48 10.3667 1.27333 8.60667 2.86 7.26C 4.46 5.91333 6.56667 5.24 9.18 5.24C 10.18 5.24 11.1333 5.34 12.04 5.54C 12.9467 5.74 13.7 6 14.3 6.32L 14.34 9.76L 14.18 9.76C 13.9533 8.90667 13.5733 8.19333 13.04 7.62C 12.08 6.59333 10.7867 6.08 9.16 6.08C 7.53333 6.08 6.22 6.66 5.22 7.82C 4.23333 8.98 3.74 10.52 3.74 12.44C 3.74 14.3467 4.25333 15.9 5.28 17.1C 6.32 18.3 7.74667 18.92 9.56 18.96C 11.52 18.96 13.08 18.3333 14.24 17.08C 15.4 15.8267 15.98 14.1267 15.98 11.98C 15.98 11.8867 15.98 11.7933 15.98 11.7L 16.16 11.7ZM 25.4992 5.24C 27.9659 5.24 29.9259 5.89333 31.3792 7.2C 32.8326 8.50667 33.5592 10.28 33.5592 12.52C 33.5592 14.76 32.8326 16.5333 31.3792 17.84C 29.9259 19.1467 27.9659 19.8 25.4992 19.8C 23.0326 19.8 21.0726 19.1467 19.6192 17.84C 18.1659 16.5333 17.4392 14.76 17.4392 12.52C 17.4392 11.04 17.7659 9.75333 18.4192 8.66C 19.0859 7.55333 20.0259 6.70667 21.2392 6.12C 22.4526 5.53333 23.8726 5.24 25.4992 5.24ZM 21.9992 17.24C 22.8659 18.3867 24.0326 18.96 25.4992 18.96C 26.9659 18.96 28.1259 18.3867 28.9792 17.24C 29.8459 16.08 30.2792 14.5067 30.2792 12.52C 30.2792 11.2133 30.0859 10.0733 29.6992 9.1C 29.3126 8.12667 28.7592 7.38 28.0392 6.86C 27.3192 6.34 26.4726 6.08 25.4992 6.08C 24.0326 6.08 22.8659 6.66 21.9992 7.82C 21.1459 8.96667 20.7192 10.5333 20.7192 12.52C 20.7192 14.5067 21.1459 16.08 21.9992 17.24ZM 33.8 5.24C 36.2667 5.24 38.2267 5.89333 39.68 7.2C 41.1333 8.50667 41.86 10.28 41.86 12.52C 41.86 14.76 41.1333 16.5333 39.68 17.84C 38.2267 19.1467 36.2667 19.8 33.8 19.8C 31.3333 19.8 29.3733 19.1467 27.92 17.84C 26.4667 16.5333 25.74 14.76 25.74 12.52C 25.74 11.04 26.0667 9.75333 26.72 8.66C 27.3867 7.55333 28.3267 6.70667 29.54 6.12C 30.7533 5.53333 32.1733 5.24 33.8 5.24ZM 30.3 17.24C 31.1667 18.3867 32.3333 18.96 33.8 18.96C 35.2667 18.96 36.4267 18.3867 37.28 17.24C 38.1467 16.08 38.58 14.5067 38.58 12.52C 38.58 11.2133 38.3867 10.0733 38 9.1C 37.6133 8.12667 37.06 7.38 36.34 6.86C 35.62 6.34 34.7733 6.08 33.8 6.08C 32.3333 6.08 31.1667 6.66 30.3 7.82C 29.4467 8.96667 29.02 10.5333 29.02 12.52C 29.02 14.5067 29.4467 16.08 30.3 17.24ZM 43.2875 19.32C 43.6342 19.32 43.9275 19.2 44.1675 18.96C 44.4208 18.7067 44.5542 18.4067 44.5675 18.06L 44.5675 6.96C 44.5542 6.48 44.3342 6.12 43.9075 5.88C 43.7208 5.77333 43.5142 5.72 43.2875 5.72L 43.0275 5.72L 43.0275 5.52L 49.1075 5.52L 49.0875 5.72L 48.8475 5.72C 48.3675 5.72 48.0008 5.92667 47.7475 6.34C 47.6275 6.52667 47.5675 6.73333 47.5675 6.96L 47.5675 18.06C 47.5675 18.4067 47.6942 18.7067 47.9475 18.96C 48.2008 19.2 48.5008 19.32 48.8475 19.32L 49.0875 19.32L 49.1075 19.52L 43.0275 19.52L 43.0275 19.32L 43.2875 19.32ZM 57.7275 19.52L 56.0875 19.52C 54.0608 19.52 52.6275 18.9667 51.7875 17.86C 49.4008 14.62 48.2075 12.9733 48.2075 12.92L 52.9475 6.64C 53.0542 6.50667 53.1075 6.38667 53.1075 6.28C 53.1075 6.17333 53.0875 6.08 53.0475 6C 52.9408 5.8 52.7542 5.7 52.4875 5.7L 52.2875 5.7L 52.2875 5.52L 56.8675 5.52L 56.8675 5.7L 56.7875 5.7C 55.8942 5.7 55.1675 6.02 54.6075 6.66L 50.7075 11.28L 55.6875 18.08C 56.3008 18.88 56.9808 19.2933 57.7275 19.32L 57.7275 19.52ZM 70.3847 19.32L 70.6447 19.32L 70.6447 19.52L 64.5647 19.52L 64.5647 19.32L 64.8247 19.32C 65.1714 19.32 65.4647 19.2 65.7047 18.96C 65.958 18.7067 66.0914 18.4067 66.1047 18.06L 66.1047 6.34L 64.2047 6.42C 62.9514 6.47333 62.3247 6.94 62.3247 7.82C 62.3247 8.18 62.4447 8.48667 62.6847 8.74C 62.938 8.98 63.2847 9.1 63.7247 9.1C 63.7647 9.1 63.8047 9.1 63.8447 9.1L 63.8447 9.22C 63.578 9.31333 63.3514 9.36 63.1647 9.36C 62.5647 9.36 62.1047 9.14667 61.7847 8.72C 61.558 8.42667 61.4447 8.09333 61.4447 7.72C 61.4447 7.13333 61.678 6.65333 62.1447 6.28C 62.598 5.89333 63.3047 5.66667 64.2647 5.6C 64.438 5.58667 64.998 5.56 65.9447 5.52C 68.1047 5.44 69.6714 5.30667 70.6447 5.12L 70.6847 5.32C 70.1114 5.41333 69.7047 5.60667 69.4647 5.9C 69.238 6.19333 69.118 6.62667 69.1047 7.2L 69.1047 18.06C 69.118 18.4067 69.2447 18.7067 69.4847 18.96C 69.738 19.2 70.038 19.32 70.3847 19.32ZM 87.7658 5.72C 87.4324 5.72 87.1458 5.84 86.9058 6.08C 86.6658 6.30667 86.5391 6.58667 86.5258 6.92L 86.5258 17.24C 86.5258 18.1333 86.5858 18.8867 86.7058 19.5L 86.7658 19.8L 86.5858 19.8L 76.4858 10.18L 76.4858 18.12C 76.4858 18.4533 76.6058 18.74 76.8458 18.98C 77.0858 19.2067 77.3724 19.32 77.7058 19.32L 78.0858 19.32L 78.0858 19.52L 72.0258 19.52L 72.0258 19.32L 72.3858 19.32C 72.7324 19.32 73.0258 19.2067 73.2658 18.98C 73.5058 18.74 73.6258 18.4467 73.6258 18.1L 73.6258 7.72C 73.6258 6.84 73.5658 6.10667 73.4458 5.52L 73.4058 5.22L 73.5858 5.22L 83.6858 14.84L 83.6858 6.94C 83.6724 6.59333 83.5458 6.30667 83.3058 6.08C 83.0658 5.84 82.7791 5.72 82.4458 5.72L 82.0858 5.72L 82.0858 5.52L 88.1458 5.52L 88.1458 5.72L 87.7658 5.72ZM 94.8305 19.32C 95.1771 19.32 95.4705 19.2 95.7105 18.96C 95.9638 18.7067 96.0971 18.4067 96.1105 18.06L 96.1105 6.96C 96.0971 6.48 95.8771 6.12 95.4505 5.88C 95.2638 5.77333 95.0571 5.72 94.8305 5.72L 94.5705 5.72L 94.5705 5.52L 100.65 5.52L 100.63 5.72L 100.39 5.72C 100.044 5.72 99.7438 5.84 99.4905 6.08C 99.2371 6.32 99.1105 6.61333 99.1105 6.96L 99.1105 18.06C 99.1105 18.4067 99.2371 18.7067 99.4905 18.96C 99.7438 19.2 100.044 19.32 100.39 19.32L 100.63 19.32L 100.65 19.52L 94.5705 19.52L 94.5705 19.32L 94.8305 19.32ZM 114.69 22.92C 113.717 23.4267 112.83 23.68 112.03 23.68C 111.23 23.68 110.51 23.5667 109.87 23.34C 108.284 22.7667 106.664 21.4533 105.01 19.4L 99.7505 12.92L 104.49 6.64C 104.597 6.50667 104.65 6.38667 104.65 6.28C 104.65 6.17333 104.63 6.08 104.59 6C 104.484 5.8 104.297 5.7 104.03 5.7L 103.83 5.7L 103.83 5.52L 108.41 5.52L 108.41 5.7L 108.33 5.7C 107.437 5.7 106.71 6.02 106.15 6.66L 102.25 11.3L 107.69 18.06C 108.904 19.66 110.044 20.82 111.11 21.54C 112.177 22.26 113.364 22.6533 114.67 22.72L 114.69 22.92ZM 110.045 19.32C 110.392 19.32 110.685 19.2 110.925 18.96C 111.179 18.7067 111.312 18.4067 111.325 18.06L 111.325 6.96C 111.312 6.61333 111.179 6.32 110.925 6.08C 110.685 5.84 110.392 5.72 110.045 5.72L 109.785 5.72L 109.785 5.52L 115.865 5.52L 115.845 5.72L 115.605 5.72C 115.259 5.72 114.959 5.84 114.705 6.08C 114.452 6.32 114.325 6.61333 114.325 6.96L 114.325 18.06C 114.325 18.4067 114.452 18.7067 114.705 18.96C 114.959 19.2 115.259 19.32 115.605 19.32L 115.845 19.32L 115.865 19.52L 109.785 19.52L 109.785 19.32L 110.045 19.32ZM 124.84 6.34L 124.84 18.08C 124.853 18.4267 124.98 18.72 125.22 18.96C 125.473 19.2 125.773 19.32 126.12 19.32L 126.36 19.32L 126.38 19.52L 120.3 19.52L 120.3 19.32L 120.56 19.32C 120.893 19.32 121.18 19.2 121.42 18.96C 121.673 18.72 121.813 18.4333 121.84 18.1L 121.84 6.34L 119.14 6.34C 118.527 6.35333 118.04 6.54667 117.68 6.92C 117.32 7.29333 117.14 7.78 117.14 8.38L 117.14 8.62L 116.94 8.62L 116.94 5.14C 117.127 5.22 117.46 5.3 117.94 5.38C 118.433 5.46 118.887 5.5 119.3 5.5L 127.36 5.5C 128.013 5.48667 128.547 5.43333 128.96 5.34C 129.373 5.24667 129.627 5.18 129.72 5.14L 129.72 8.62L 129.52 8.62L 129.52 8.38C 129.52 7.78 129.34 7.29333 128.98 6.92C 128.62 6.54667 128.133 6.35333 127.52 6.34L 124.84 6.34ZM 138.945 19.78C 136.372 19.78 134.352 19.1333 132.885 17.84C 131.418 16.5467 130.685 14.7733 130.685 12.52C 130.685 10.2667 131.412 8.49333 132.865 7.2C 134.318 5.89333 136.312 5.24 138.845 5.24C 140.778 5.24 142.438 5.6 143.825 6.32L 143.865 9.76L 143.705 9.76C 143.025 7.30667 141.472 6.08 139.045 6.08C 137.472 6.08 136.225 6.65333 135.305 7.8C 134.398 8.93333 133.945 10.4867 133.945 12.46C 133.945 14.4333 134.378 16 135.245 17.16C 136.125 18.32 137.312 18.92 138.805 18.96C 140.352 18.96 141.532 18.5733 142.345 17.8C 143.172 17 143.745 15.6267 144.065 13.68L 144.225 13.68L 144.425 17.12C 143.345 18.9067 141.518 19.7933 138.945 19.78ZM 155.912 19.32C 156.259 19.32 156.525 19.2333 156.712 19.06C 157.019 18.7533 157.179 18.4267 157.192 18.08L 157.192 12.98L 150.712 12.98L 150.712 18.06C 150.712 18.4067 150.839 18.7067 151.092 18.96C 151.345 19.2 151.645 19.32 151.992 19.32L 152.232 19.32L 152.252 19.52L 146.172 19.52L 146.172 19.32L 146.432 19.32C 146.779 19.32 147.072 19.2 147.312 18.96C 147.565 18.7067 147.699 18.4067 147.712 18.06L 147.712 6.96C 147.699 6.61333 147.565 6.32 147.312 6.08C 147.072 5.84 146.779 5.72 146.432 5.72L 146.172 5.72L 146.172 5.52L 152.252 5.52L 152.232 5.72L 151.992 5.72C 151.645 5.72 151.345 5.84 151.092 6.08C 150.839 6.32 150.712 6.61333 150.712 6.96L 150.712 12.12L 157.192 12.12L 157.192 6.96C 157.179 6.61333 157.045 6.32 156.792 6.08C 156.552 5.84 156.259 5.72 155.912 5.72L 155.652 5.72L 155.652 5.52L 161.732 5.52L 161.732 5.72L 161.472 5.72C 161.125 5.72 160.825 5.84667 160.572 6.1C 160.319 6.34 160.192 6.63333 160.192 6.98L 160.192 18.06C 160.192 18.4067 160.319 18.7067 160.572 18.96C 160.825 19.2 161.125 19.32 161.472 19.32L 161.732 19.32L 161.732 19.52L 155.652 19.52L 155.652 19.32L 155.912 19.32ZM 155.983 19.32C 156.329 19.32 156.623 19.2 156.863 18.96C 157.116 18.7067 157.249 18.4067 157.263 18.06L 157.263 6.92C 157.223 6.45333 157.003 6.10667 156.603 5.88C 156.403 5.77333 156.196 5.72 155.983 5.72L 155.723 5.72L 155.723 5.52L 163.383 5.52C 163.796 5.52 164.249 5.48 164.743 5.4C 165.236 5.32 165.583 5.24 165.783 5.16L 165.783 8.66L 165.583 8.66L 165.583 8.42C 165.583 7.82 165.403 7.34 165.043 6.98C 164.696 6.60667 164.223 6.40667 163.623 6.38L 160.263 6.38L 160.263 12.2L 162.903 12.2C 163.396 12.1867 163.803 12.02 164.123 11.7C 164.443 11.3667 164.603 10.96 164.603 10.48L 164.603 10.3L 164.803 10.3L 164.803 14.92L 164.603 14.92L 164.603 14.76C 164.603 14.0933 164.336 13.6 163.803 13.28C 163.536 13.1333 163.243 13.0533 162.923 13.04L 160.263 13.04L 160.263 18.66L 162.883 18.66C 163.856 18.66 164.669 18.38 165.323 17.82C 165.989 17.26 166.483 16.4667 166.803 15.44L 167.003 15.44L 166.083 19.52L 155.723 19.52L 155.723 19.32L 155.983 19.32ZM 183.84 5.72C 183.507 5.72 183.22 5.84 182.98 6.08C 182.74 6.30667 182.613 6.58667 182.6 6.92L 182.6 17.24C 182.6 18.1333 182.66 18.8867 182.78 19.5L 182.84 19.8L 182.66 19.8L 172.56 10.18L 172.56 18.12C 172.56 18.4533 172.68 18.74 172.92 18.98C 173.16 19.2067 173.447 19.32 173.78 19.32L 174.16 19.32L 174.16 19.52L 168.1 19.52L 168.1 19.32L 168.46 19.32C 168.807 19.32 169.1 19.2067 169.34 18.98C 169.58 18.74 169.7 18.4467 169.7 18.1L 169.7 7.72C 169.7 6.84 169.64 6.10667 169.52 5.52L 169.48 5.22L 169.66 5.22L 179.76 14.84L 179.76 6.94C 179.747 6.59333 179.62 6.30667 179.38 6.08C 179.14 5.84 178.853 5.72 178.52 5.72L 178.16 5.72L 178.16 5.52L 184.22 5.52L 184.22 5.72L 183.84 5.72Z"/>
</defs>
</svg>
