<svg width="282" height="29" viewBox="0 0 282 29" version="1.1" xmlns="http://www.w3.org/2000/svg" xmlns:xlink="http://www.w3.org/1999/xlink" xmlns:figma="http://www.figma.com/figma/ns">
<title>Cook n K tchen</title>
<desc>Created using Figma</desc>
<g id="Canvas" transform="translate(737 275)" figma:type="canvas">
<g id="Cook n K tchen" style="mix-blend-mode:normal;isolation:isolate;" figma:type="text">
<use xlink:href="#path0_fill" transform="translate(-737 -282)" fill="#F05F40" style="mix-blend-mode:darken;"/>
</g>
<g id="fire" style="mix-blend-mode:normal;" figma:type="frame">
<g id="Vector" style="mix-blend-mode:normal;" figma:type="vector">
<use xlink:href="#path1_fill" transform="matrix(-1 -1.22465e-16 1.22465e-16 -1 -628 -252)" fill="#F05F40" style="mix-blend-mode:normal;"/>
</g>
</g>
<g id="fire" style="mix-blend-mode:normal;" figma:type="frame">
<g id="Vector" style="mix-blend-mode:normal;" figma:type="vector">
<use xlink:href="#path1_fill" transform="matrix(-1 -1.22465e-16 1.22465e-16 -1 -559 -252)" fill="#F05F40" style="mix-blend-mode:normal;"/>
</g>
</g>
</g>
<defs>
<path id="path0_fill" d="M 24.24 17.55C 24.3 18.15 24.33 18.91 24.33 19.83C 24.33 20.73 24.15 21.84 23.79 23.16C 23.43 24.46 22.78 25.61 21.84 26.61C 19.92 28.67 17.28 29.7 13.92 29.7C 9.84 29.7 6.62 28.7 4.26 26.7C 1.9 24.68 0.72 22.05 0.72 18.81C 0.72 15.55 1.91 12.91 4.29 10.89C 6.69 8.87 9.85 7.86 13.77 7.86C 15.27 7.86 16.7 8.01 18.06 8.31C 19.42 8.61 20.55 9 21.45 9.48L 21.51 14.64L 21.27 14.64C 20.93 13.36 20.36 12.29 19.56 11.43C 18.12 9.89 16.18 9.12 13.74 9.12C 11.3 9.12 9.33 9.99 7.83 11.73C 6.35 13.47 5.61 15.78 5.61 18.66C 5.61 21.52 6.38 23.85 7.92 25.65C 9.48 27.45 11.62 28.38 14.34 28.44C 17.28 28.44 19.62 27.5 21.36 25.62C 23.1 23.74 23.97 21.19 23.97 17.97C 23.97 17.83 23.97 17.69 23.97 17.55L 24.24 17.55ZM 38.2488 7.86C 41.9488 7.86 44.8888 8.84 47.0688 10.8C 49.2488 12.76 50.3388 15.42 50.3388 18.78C 50.3388 22.14 49.2488 24.8 47.0688 26.76C 44.8888 28.72 41.9488 29.7 38.2488 29.7C 34.5488 29.7 31.6088 28.72 29.4288 26.76C 27.2488 24.8 26.1588 22.14 26.1588 18.78C 26.1588 16.56 26.6488 14.63 27.6288 12.99C 28.6288 11.33 30.0388 10.06 31.8588 9.18C 33.6788 8.3 35.8088 7.86 38.2488 7.86ZM 32.9988 25.86C 34.2988 27.58 36.0488 28.44 38.2488 28.44C 40.4488 28.44 42.1888 27.58 43.4688 25.86C 44.7688 24.12 45.4188 21.76 45.4188 18.78C 45.4188 16.82 45.1288 15.11 44.5488 13.65C 43.9688 12.19 43.1388 11.07 42.0588 10.29C 40.9788 9.51 39.7088 9.12 38.2488 9.12C 36.0488 9.12 34.2988 9.99 32.9988 11.73C 31.7188 13.45 31.0788 15.8 31.0788 18.78C 31.0788 21.76 31.7188 24.12 32.9988 25.86ZM 50.7 7.86C 54.4 7.86 57.34 8.84 59.52 10.8C 61.7 12.76 62.79 15.42 62.79 18.78C 62.79 22.14 61.7 24.8 59.52 26.76C 57.34 28.72 54.4 29.7 50.7 29.7C 47 29.7 44.06 28.72 41.88 26.76C 39.7 24.8 38.61 22.14 38.61 18.78C 38.61 16.56 39.1 14.63 40.08 12.99C 41.08 11.33 42.49 10.06 44.31 9.18C 46.13 8.3 48.26 7.86 50.7 7.86ZM 45.45 25.86C 46.75 27.58 48.5 28.44 50.7 28.44C 52.9 28.44 54.64 27.58 55.92 25.86C 57.22 24.12 57.87 21.76 57.87 18.78C 57.87 16.82 57.58 15.11 57 13.65C 56.42 12.19 55.59 11.07 54.51 10.29C 53.43 9.51 52.16 9.12 50.7 9.12C 48.5 9.12 46.75 9.99 45.45 11.73C 44.17 13.45 43.53 15.8 43.53 18.78C 43.53 21.76 44.17 24.12 45.45 25.86ZM 64.9312 28.98C 65.4513 28.98 65.8912 28.8 66.2512 28.44C 66.6312 28.06 66.8312 27.61 66.8513 27.09L 66.8513 10.44C 66.8312 9.72 66.5012 9.18 65.8613 8.82C 65.5813 8.66 65.2712 8.58 64.9312 8.58L 64.5412 8.58L 64.5412 8.28L 73.6612 8.28L 73.6312 8.58L 73.2713 8.58C 72.5512 8.58 72.0013 8.89 71.6212 9.51C 71.4413 9.79 71.3512 10.1 71.3512 10.44L 71.3512 27.09C 71.3512 27.61 71.5413 28.06 71.9212 28.44C 72.3012 28.8 72.7513 28.98 73.2713 28.98L 73.6312 28.98L 73.6612 29.28L 64.5412 29.28L 64.5412 28.98L 64.9312 28.98ZM 86.5913 29.28L 84.1312 29.28C 81.0913 29.28 78.9413 28.45 77.6812 26.79C 74.1012 21.93 72.3112 19.46 72.3112 19.38L 79.4212 9.96C 79.5813 9.76 79.6613 9.58 79.6613 9.42C 79.6613 9.26 79.6313 9.12 79.5712 9C 79.4113 8.7 79.1312 8.55 78.7312 8.55L 78.4312 8.55L 78.4312 8.28L 85.3013 8.28L 85.3013 8.55L 85.1813 8.55C 83.8412 8.55 82.7512 9.03 81.9112 9.99L 76.0612 16.92L 83.5313 27.12C 84.4512 28.32 85.4712 28.94 86.5913 28.98L 86.5913 29.28ZM 132.967 8.58C 132.467 8.58 132.037 8.76 131.677 9.12C 131.317 9.46 131.127 9.88 131.107 10.38L 131.107 25.86C 131.107 27.2 131.197 28.33 131.377 29.25L 131.467 29.7L 131.197 29.7L 116.047 15.27L 116.047 27.18C 116.047 27.68 116.227 28.11 116.587 28.47C 116.947 28.81 117.377 28.98 117.877 28.98L 118.447 28.98L 118.447 29.28L 109.357 29.28L 109.357 28.98L 109.897 28.98C 110.417 28.98 110.857 28.81 111.217 28.47C 111.577 28.11 111.757 27.67 111.757 27.15L 111.757 11.58C 111.757 10.26 111.667 9.16 111.487 8.28L 111.427 7.83L 111.697 7.83L 126.847 22.26L 126.847 10.41C 126.827 9.89 126.637 9.46 126.277 9.12C 125.917 8.76 125.487 8.58 124.987 8.58L 124.447 8.58L 124.447 8.28L 133.537 8.28L 133.537 8.58L 132.967 8.58ZM 143.564 28.98C 144.084 28.98 144.524 28.8 144.884 28.44C 145.264 28.06 145.464 27.61 145.484 27.09L 145.484 10.44C 145.464 9.72 145.134 9.18 144.494 8.82C 144.214 8.66 143.904 8.58 143.564 8.58L 143.174 8.58L 143.174 8.28L 152.294 8.28L 152.264 8.58L 151.904 8.58C 151.384 8.58 150.934 8.76 150.554 9.12C 150.174 9.48 149.984 9.92 149.984 10.44L 149.984 27.09C 149.984 27.61 150.174 28.06 150.554 28.44C 150.934 28.8 151.384 28.98 151.904 28.98L 152.264 28.98L 152.294 29.28L 143.174 29.28L 143.174 28.98L 143.564 28.98ZM 173.354 34.38C 171.894 35.14 170.564 35.52 169.364 35.52C 168.164 35.52 167.084 35.35 166.124 35.01C 163.744 34.15 161.314 32.18 158.834 29.1L 150.944 19.38L 158.054 9.96C 158.214 9.76 158.294 9.58 158.294 9.42C 158.294 9.26 158.264 9.12 158.204 9C 158.044 8.7 157.764 8.55 157.364 8.55L 157.064 8.55L 157.064 8.28L 163.934 8.28L 163.934 8.55L 163.814 8.55C 162.474 8.55 161.384 9.03 160.544 9.99L 154.694 16.95L 162.854 27.09C 164.674 29.49 166.384 31.23 167.984 32.31C 169.584 33.39 171.364 33.98 173.324 34.08L 173.354 34.38ZM 192.006 9.51L 192.006 27.12C 192.026 27.64 192.216 28.08 192.576 28.44C 192.956 28.8 193.406 28.98 193.926 28.98L 194.286 28.98L 194.316 29.28L 185.196 29.28L 185.196 28.98L 185.586 28.98C 186.086 28.98 186.516 28.8 186.876 28.44C 187.256 28.08 187.466 27.65 187.506 27.15L 187.506 9.51L 183.456 9.51C 182.536 9.53 181.806 9.82 181.266 10.38C 180.726 10.94 180.456 11.67 180.456 12.57L 180.456 12.93L 180.156 12.93L 180.156 7.71C 180.436 7.83 180.936 7.95 181.656 8.07C 182.396 8.19 183.076 8.25 183.696 8.25L 195.786 8.25C 196.766 8.23 197.566 8.15 198.186 8.01C 198.806 7.87 199.186 7.77 199.326 7.71L 199.326 12.93L 199.026 12.93L 199.026 12.57C 199.026 11.67 198.756 10.94 198.216 10.38C 197.676 9.82 196.946 9.53 196.026 9.51L 192.006 9.51ZM 213.164 29.67C 209.304 29.67 206.274 28.7 204.074 26.76C 201.874 24.82 200.774 22.16 200.774 18.78C 200.774 15.4 201.864 12.74 204.044 10.8C 206.224 8.84 209.214 7.86 213.014 7.86C 215.914 7.86 218.404 8.4 220.484 9.48L 220.544 14.64L 220.304 14.64C 219.284 10.96 216.954 9.12 213.314 9.12C 210.954 9.12 209.084 9.98 207.704 11.7C 206.344 13.4 205.664 15.73 205.664 18.69C 205.664 21.65 206.314 24 207.614 25.74C 208.934 27.48 210.714 28.38 212.954 28.44C 215.274 28.44 217.044 27.86 218.264 26.7C 219.504 25.5 220.364 23.44 220.844 20.52L 221.084 20.52L 221.384 25.68C 219.764 28.36 217.024 29.69 213.164 29.67ZM 238.614 28.98C 239.134 28.98 239.534 28.85 239.814 28.59C 240.274 28.13 240.514 27.64 240.534 27.12L 240.534 19.47L 230.814 19.47L 230.814 27.09C 230.814 27.61 231.004 28.06 231.384 28.44C 231.764 28.8 232.214 28.98 232.734 28.98L 233.094 28.98L 233.124 29.28L 224.004 29.28L 224.004 28.98L 224.394 28.98C 224.914 28.98 225.354 28.8 225.714 28.44C 226.094 28.06 226.294 27.61 226.314 27.09L 226.314 10.44C 226.294 9.92 226.094 9.48 225.714 9.12C 225.354 8.76 224.914 8.58 224.394 8.58L 224.004 8.58L 224.004 8.28L 233.124 8.28L 233.094 8.58L 232.734 8.58C 232.214 8.58 231.764 8.76 231.384 9.12C 231.004 9.48 230.814 9.92 230.814 10.44L 230.814 18.18L 240.534 18.18L 240.534 10.44C 240.514 9.92 240.314 9.48 239.934 9.12C 239.574 8.76 239.134 8.58 238.614 8.58L 238.224 8.58L 238.224 8.28L 247.344 8.28L 247.344 8.58L 246.954 8.58C 246.434 8.58 245.984 8.77 245.604 9.15C 245.224 9.51 245.034 9.95 245.034 10.47L 245.034 27.09C 245.034 27.61 245.224 28.06 245.604 28.44C 245.984 28.8 246.434 28.98 246.954 28.98L 247.344 28.98L 247.344 29.28L 238.224 29.28L 238.224 28.98L 238.614 28.98ZM 238.72 28.98C 239.24 28.98 239.68 28.8 240.04 28.44C 240.42 28.06 240.62 27.61 240.64 27.09L 240.64 10.38C 240.58 9.68 240.25 9.16 239.65 8.82C 239.35 8.66 239.04 8.58 238.72 8.58L 238.33 8.58L 238.33 8.28L 249.82 8.28C 250.44 8.28 251.12 8.22 251.86 8.1C 252.6 7.98 253.12 7.86 253.42 7.74L 253.42 12.99L 253.12 12.99L 253.12 12.63C 253.12 11.73 252.85 11.01 252.31 10.47C 251.79 9.91 251.08 9.61 250.18 9.57L 245.14 9.57L 245.14 18.3L 249.1 18.3C 249.84 18.28 250.45 18.03 250.93 17.55C 251.41 17.05 251.65 16.44 251.65 15.72L 251.65 15.45L 251.95 15.45L 251.95 22.38L 251.65 22.38L 251.65 22.14C 251.65 21.14 251.25 20.4 250.45 19.92C 250.05 19.7 249.61 19.58 249.13 19.56L 245.14 19.56L 245.14 27.99L 249.07 27.99C 250.53 27.99 251.75 27.57 252.73 26.73C 253.73 25.89 254.47 24.7 254.95 23.16L 255.25 23.16L 253.87 29.28L 238.33 29.28L 238.33 28.98L 238.72 28.98ZM 280.506 8.58C 280.006 8.58 279.576 8.76 279.216 9.12C 278.856 9.46 278.666 9.88 278.646 10.38L 278.646 25.86C 278.646 27.2 278.736 28.33 278.916 29.25L 279.006 29.7L 278.736 29.7L 263.586 15.27L 263.586 27.18C 263.586 27.68 263.766 28.11 264.126 28.47C 264.486 28.81 264.916 28.98 265.416 28.98L 265.986 28.98L 265.986 29.28L 256.896 29.28L 256.896 28.98L 257.436 28.98C 257.956 28.98 258.396 28.81 258.756 28.47C 259.116 28.11 259.296 27.67 259.296 27.15L 259.296 11.58C 259.296 10.26 259.206 9.16 259.026 8.28L 258.966 7.83L 259.236 7.83L 274.386 22.26L 274.386 10.41C 274.366 9.89 274.176 9.46 273.816 9.12C 273.456 8.76 273.026 8.58 272.526 8.58L 271.986 8.58L 271.986 8.28L 281.076 8.28L 281.076 8.58L 280.506 8.58Z"/>
<path id="path1_fill" d="M 12 20.8214L 12 21.6071C 12 21.7135 11.973 21.8056 11.919 21.8834C 11.8651 21.9611 11.8011 22 11.7273 22L 0.272727 22C 0.198864 22 0.134943 21.9611 0.0809659 21.8834C 0.0269886 21.8056 0 21.7135 0 21.6071L 0 20.8214C 0 20.715 0.0269886 20.623 0.0809659 20.5452C 0.134943 20.4674 0.198864 20.4286 0.272727 20.4286L 11.7273 20.4286C 11.8011 20.4286 11.8651 20.4674 11.919 20.5452C 11.973 20.623 12 20.715 12 20.8214ZM 9.81818 7.85714C 9.81818 8.49554 9.74858 9.08482 9.60938 9.625C 9.47017 10.1652 9.28835 10.6256 9.06392 11.0061C 8.83949 11.3867 8.59091 11.7468 8.31818 12.0865C 8.04545 12.4262 7.77273 12.7433 7.5 13.0379C 7.22727 13.3326 6.97869 13.6272 6.75426 13.9219C 6.52983 14.2165 6.34801 14.55 6.20881 14.9224C 6.0696 15.2948 6 15.6897 6 16.1071C 6 16.8929 6.19034 17.8095 6.57102 18.8571L 6.53693 18.8449L 6.54545 18.8571C 6.03409 18.5216 5.57955 18.1819 5.18182 17.8382C 4.78409 17.4944 4.39063 17.0852 4.00142 16.6105C 3.61222 16.1358 3.28977 15.6345 3.03409 15.1066C 2.77841 14.5787 2.57244 13.9628 2.41619 13.2589C 2.25994 12.5551 2.18182 11.8021 2.18182 11C 2.18182 10.3616 2.25142 9.77232 2.39062 9.23214C 2.52983 8.69196 2.71165 8.23158 2.93608 7.851C 3.16051 7.47042 3.40909 7.11031 3.68182 6.77065C 3.95455 6.43099 4.22727 6.11384 4.5 5.8192C 4.77273 5.52455 5.02131 5.22991 5.24574 4.93527C 5.47017 4.64062 5.65199 4.30711 5.79119 3.93471C 5.9304 3.56231 6 3.16741 6 2.75C 6 1.98065 5.8125 1.06399 5.4375 0L 5.46307 0.0122768L 5.45455 0C 5.96591 0.335565 6.42045 0.675223 6.81818 1.01897C 7.21591 1.36272 7.60937 1.77195 7.99858 2.24665C 8.38778 2.72135 8.71023 3.22266 8.96591 3.75056C 9.22159 4.27846 9.42756 4.89435 9.58381 5.59821C 9.74006 6.30208 9.81818 7.05506 9.81818 7.85714Z"/>
</defs>
</svg>
