<svg width="285" height="37" viewBox="0 0 285 37" version="1.1" xmlns="http://www.w3.org/2000/svg" xmlns:xlink="http://www.w3.org/1999/xlink" xmlns:figma="http://www.figma.com/figma/ns">
<title>saltdKurry</title>
<desc>Created using Figma</desc>
<g id="Canvas" transform="translate(740 275)" figma:type="canvas">
<g id="saltdKurry" style="mix-blend-mode:normal;isolation:isolate;" filter="url(#filter0_d)" figma:type="text">
<use xlink:href="#path0_fill" transform="translate(-736 -282)" fill="#F05F40" style="mix-blend-mode:darken;"/>
</g>
</g>
<defs>
<filter id="filter0_d" filterUnits="userSpaceOnUse" x="-740" y="-275" width="285" height="37" color-interpolation-filters="sRGB">
<feFlood flood-opacity="0" result="BackgroundImageFix"/>
<desc>type="dropShadow" x="0" y="4" size="4" spread="0" color="0,0,0,0.25" blend="normal"</desc>
<feColorMatrix in="SourceAlpha" type="matrix" values="0 0 0 0 0 0 0 0 0 0 0 0 0 0 0 0 0 0 255 0"/>
<feOffset dx="0" dy="4"/>
<feGaussianBlur stdDeviation="2"/>
<feColorMatrix type="matrix" values="0 0 0 0 0 0 0 0 0 0 0 0 0 0 0 0 0 0 0.25 0"/>
<feBlend mode="normal" in2="BackgroundImageFix" result="effect1_dropShadow"/>
<feBlend mode="normal" in="SourceGraphic" in2="effect1_dropShadow" result="shape"/>
</filter>
<path id="path0_fill" d="M 24.24 17.55C 24.3 18.15 24.33 18.91 24.33 19.83C 24.33 20.73 24.15 21.84 23.79 23.16C 23.43 24.46 22.78 25.61 21.84 26.61C 19.92 28.67 17.28 29.7 13.92 29.7C 9.84 29.7 6.62 28.7 4.26 26.7C 1.9 24.68 0.72 22.05 0.72 18.81C 0.72 15.55 1.91 12.91 4.29 10.89C 6.69 8.87 9.85 7.86 13.77 7.86C 15.27 7.86 16.7 8.01 18.06 8.31C 19.42 8.61 20.55 9 21.45 9.48L 21.51 14.64L 21.27 14.64C 20.93 13.36 20.36 12.29 19.56 11.43C 18.12 9.89 16.18 9.12 13.74 9.12C 11.3 9.12 9.33 9.99 7.83 11.73C 6.35 13.47 5.61 15.78 5.61 18.66C 5.61 21.52 6.38 23.85 7.92 25.65C 9.48 27.45 11.62 28.38 14.34 28.44C 17.28 28.44 19.62 27.5 21.36 25.62C 23.1 23.74 23.97 21.19 23.97 17.97C 23.97 17.83 23.97 17.69 23.97 17.55L 24.24 17.55ZM 38.2488 7.86C 41.9488 7.86 44.8888 8.84 47.0688 10.8C 49.2488 12.76 50.3388 15.42 50.3388 18.78C 50.3388 22.14 49.2488 24.8 47.0688 26.76C 44.8888 28.72 41.9488 29.7 38.2488 29.7C 34.5488 29.7 31.6088 28.72 29.4288 26.76C 27.2488 24.8 26.1588 22.14 26.1588 18.78C 26.1588 16.56 26.6488 14.63 27.6288 12.99C 28.6288 11.33 30.0388 10.06 31.8588 9.18C 33.6788 8.3 35.8088 7.86 38.2488 7.86ZM 32.9988 25.86C 34.2988 27.58 36.0488 28.44 38.2488 28.44C 40.4488 28.44 42.1888 27.58 43.4688 25.86C 44.7688 24.12 45.4188 21.76 45.4188 18.78C 45.4188 16.82 45.1288 15.11 44.5488 13.65C 43.9688 12.19 43.1388 11.07 42.0588 10.29C 40.9788 9.51 39.7088 9.12 38.2488 9.12C 36.0488 9.12 34.2988 9.99 32.9988 11.73C 31.7188 13.45 31.0788 15.8 31.0788 18.78C 31.0788 21.76 31.7188 24.12 32.9988 25.86ZM 50.7 7.86C 54.4 7.86 57.34 8.84 59.52 10.8C 61.7 12.76 62.79 15.42 62.79 18.78C 62.79 22.14 61.7 24.8 59.52 26.76C 57.34 28.72 54.4 29.7 50.7 29.7C 47 29.7 44.06 28.72 41.88 26.76C 39.7 24.8 38.61 22.14 38.61 18.78C 38.61 16.56 39.1 14.63 40.08 12.99C 41.08 11.33 42.49 10.06 44.31 9.18C 46.13 8.3 48.26 7.86 50.7 7.86ZM 45.45 25.86C 46.75 27.58 48.5 28.44 50.7 28.44C 52.9 28.44 54.64 27.58 55.92 25.86C 57.22 24.12 57.87 21.76 57.87 18.78C 57.87 16.82 57.58 15.11 57 13.65C 56.42 12.19 55.59 11.07 54.51 10.29C 53.43 9.51 52.16 9.12 50.7 9.12C 48.5 9.12 46.75 9.99 45.45 11.73C 44.17 13.45 43.53 15.8 43.53 18.78C 43.53 21.76 44.17 24.12 45.45 25.86ZM 64.9312 28.98C 65.4513 28.98 65.8912 28.8 66.2512 28.44C 66.6312 28.06 66.8312 27.61 66.8513 27.09L 66.8513 10.44C 66.8312 9.72 66.5012 9.18 65.8613 8.82C 65.5813 8.66 65.2712 8.58 64.9312 8.58L 64.5412 8.58L 64.5412 8.28L 73.6612 8.28L 73.6312 8.58L 73.2713 8.58C 72.5512 8.58 72.0013 8.89 71.6212 9.51C 71.4413 9.79 71.3512 10.1 71.3512 10.44L 71.3512 27.09C 71.3512 27.61 71.5413 28.06 71.9212 28.44C 72.3012 28.8 72.7513 28.98 73.2713 28.98L 73.6312 28.98L 73.6612 29.28L 64.5412 29.28L 64.5412 28.98L 64.9312 28.98ZM 86.5913 29.28L 84.1312 29.28C 81.0913 29.28 78.9413 28.45 77.6812 26.79C 74.1012 21.93 72.3112 19.46 72.3112 19.38L 79.4212 9.96C 79.5813 9.76 79.6613 9.58 79.6613 9.42C 79.6613 9.26 79.6313 9.12 79.5712 9C 79.4113 8.7 79.1312 8.55 78.7312 8.55L 78.4312 8.55L 78.4312 8.28L 85.3013 8.28L 85.3013 8.55L 85.1813 8.55C 83.8412 8.55 82.7512 9.03 81.9112 9.99L 76.0612 16.92L 83.5313 27.12C 84.4512 28.32 85.4712 28.94 86.5913 28.98L 86.5913 29.28ZM 105.577 28.98L 105.967 28.98L 105.967 29.28L 96.847 29.28L 96.847 28.98L 97.237 28.98C 97.757 28.98 98.197 28.8 98.557 28.44C 98.937 28.06 99.137 27.61 99.157 27.09L 99.157 9.51L 96.307 9.63C 94.427 9.71 93.487 10.41 93.487 11.73C 93.487 12.27 93.667 12.73 94.027 13.11C 94.407 13.47 94.927 13.65 95.587 13.65C 95.647 13.65 95.707 13.65 95.767 13.65L 95.767 13.83C 95.367 13.97 95.027 14.04 94.747 14.04C 93.847 14.04 93.157 13.72 92.677 13.08C 92.337 12.64 92.167 12.14 92.167 11.58C 92.167 10.7 92.517 9.98 93.217 9.42C 93.897 8.84 94.957 8.5 96.397 8.4C 96.657 8.38 97.497 8.34 98.917 8.28C 102.157 8.16 104.507 7.96 105.967 7.68L 106.027 7.98C 105.167 8.12 104.557 8.41 104.197 8.85C 103.857 9.29 103.677 9.94 103.657 10.8L 103.657 27.09C 103.677 27.61 103.867 28.06 104.227 28.44C 104.607 28.8 105.057 28.98 105.577 28.98ZM 131.649 8.58C 131.149 8.58 130.719 8.76 130.359 9.12C 129.999 9.46 129.809 9.88 129.789 10.38L 129.789 25.86C 129.789 27.2 129.879 28.33 130.059 29.25L 130.149 29.7L 129.879 29.7L 114.729 15.27L 114.729 27.18C 114.729 27.68 114.909 28.11 115.269 28.47C 115.629 28.81 116.059 28.98 116.559 28.98L 117.129 28.98L 117.129 29.28L 108.039 29.28L 108.039 28.98L 108.579 28.98C 109.099 28.98 109.539 28.81 109.899 28.47C 110.259 28.11 110.439 27.67 110.439 27.15L 110.439 11.58C 110.439 10.26 110.349 9.16 110.169 8.28L 110.109 7.83L 110.379 7.83L 125.529 22.26L 125.529 10.41C 125.509 9.89 125.319 9.46 124.959 9.12C 124.599 8.76 124.169 8.58 123.669 8.58L 123.129 8.58L 123.129 8.28L 132.219 8.28L 132.219 8.58L 131.649 8.58ZM 142.246 28.98C 142.766 28.98 143.206 28.8 143.566 28.44C 143.946 28.06 144.146 27.61 144.166 27.09L 144.166 10.44C 144.146 9.72 143.816 9.18 143.176 8.82C 142.896 8.66 142.586 8.58 142.246 8.58L 141.856 8.58L 141.856 8.28L 150.976 8.28L 150.946 8.58L 150.586 8.58C 150.066 8.58 149.616 8.76 149.236 9.12C 148.856 9.48 148.666 9.92 148.666 10.44L 148.666 27.09C 148.666 27.61 148.856 28.06 149.236 28.44C 149.616 28.8 150.066 28.98 150.586 28.98L 150.946 28.98L 150.976 29.28L 141.856 29.28L 141.856 28.98L 142.246 28.98ZM 172.036 34.38C 170.576 35.14 169.246 35.52 168.046 35.52C 166.846 35.52 165.766 35.35 164.806 35.01C 162.426 34.15 159.996 32.18 157.516 29.1L 149.626 19.38L 156.736 9.96C 156.896 9.76 156.976 9.58 156.976 9.42C 156.976 9.26 156.946 9.12 156.886 9C 156.726 8.7 156.446 8.55 156.046 8.55L 155.746 8.55L 155.746 8.28L 162.616 8.28L 162.616 8.55L 162.496 8.55C 161.156 8.55 160.066 9.03 159.226 9.99L 153.376 16.95L 161.536 27.09C 163.356 29.49 165.066 31.23 166.666 32.31C 168.266 33.39 170.046 33.98 172.006 34.08L 172.036 34.38ZM 165.068 28.98C 165.588 28.98 166.028 28.8 166.388 28.44C 166.768 28.06 166.968 27.61 166.988 27.09L 166.988 10.44C 166.968 9.92 166.768 9.48 166.388 9.12C 166.028 8.76 165.588 8.58 165.068 8.58L 164.678 8.58L 164.678 8.28L 173.798 8.28L 173.768 8.58L 173.408 8.58C 172.888 8.58 172.438 8.76 172.058 9.12C 171.678 9.48 171.488 9.92 171.488 10.44L 171.488 27.09C 171.488 27.61 171.678 28.06 172.058 28.44C 172.438 28.8 172.888 28.98 173.408 28.98L 173.768 28.98L 173.798 29.28L 164.678 29.28L 164.678 28.98L 165.068 28.98ZM 187.26 9.51L 187.26 27.12C 187.28 27.64 187.47 28.08 187.83 28.44C 188.21 28.8 188.66 28.98 189.18 28.98L 189.54 28.98L 189.57 29.28L 180.45 29.28L 180.45 28.98L 180.84 28.98C 181.34 28.98 181.77 28.8 182.13 28.44C 182.51 28.08 182.72 27.65 182.76 27.15L 182.76 9.51L 178.71 9.51C 177.79 9.53 177.06 9.82 176.52 10.38C 175.98 10.94 175.71 11.67 175.71 12.57L 175.71 12.93L 175.41 12.93L 175.41 7.71C 175.69 7.83 176.19 7.95 176.91 8.07C 177.65 8.19 178.33 8.25 178.95 8.25L 191.04 8.25C 192.02 8.23 192.82 8.15 193.44 8.01C 194.06 7.87 194.44 7.77 194.58 7.71L 194.58 12.93L 194.28 12.93L 194.28 12.57C 194.28 11.67 194.01 10.94 193.47 10.38C 192.93 9.82 192.2 9.53 191.28 9.51L 187.26 9.51ZM 208.418 29.67C 204.558 29.67 201.528 28.7 199.328 26.76C 197.128 24.82 196.028 22.16 196.028 18.78C 196.028 15.4 197.118 12.74 199.298 10.8C 201.478 8.84 204.468 7.86 208.268 7.86C 211.168 7.86 213.658 8.4 215.738 9.48L 215.798 14.64L 215.558 14.64C 214.538 10.96 212.208 9.12 208.568 9.12C 206.208 9.12 204.338 9.98 202.958 11.7C 201.598 13.4 200.918 15.73 200.918 18.69C 200.918 21.65 201.568 24 202.868 25.74C 204.188 27.48 205.968 28.38 208.208 28.44C 210.528 28.44 212.298 27.86 213.518 26.7C 214.758 25.5 215.618 23.44 216.098 20.52L 216.338 20.52L 216.638 25.68C 215.018 28.36 212.278 29.69 208.418 29.67ZM 233.868 28.98C 234.388 28.98 234.788 28.85 235.068 28.59C 235.528 28.13 235.768 27.64 235.788 27.12L 235.788 19.47L 226.068 19.47L 226.068 27.09C 226.068 27.61 226.258 28.06 226.638 28.44C 227.018 28.8 227.468 28.98 227.988 28.98L 228.348 28.98L 228.378 29.28L 219.258 29.28L 219.258 28.98L 219.648 28.98C 220.168 28.98 220.608 28.8 220.968 28.44C 221.348 28.06 221.548 27.61 221.568 27.09L 221.568 10.44C 221.548 9.92 221.348 9.48 220.968 9.12C 220.608 8.76 220.168 8.58 219.648 8.58L 219.258 8.58L 219.258 8.28L 228.378 8.28L 228.348 8.58L 227.988 8.58C 227.468 8.58 227.018 8.76 226.638 9.12C 226.258 9.48 226.068 9.92 226.068 10.44L 226.068 18.18L 235.788 18.18L 235.788 10.44C 235.768 9.92 235.568 9.48 235.188 9.12C 234.828 8.76 234.388 8.58 233.868 8.58L 233.478 8.58L 233.478 8.28L 242.598 8.28L 242.598 8.58L 242.208 8.58C 241.688 8.58 241.238 8.77 240.858 9.15C 240.478 9.51 240.288 9.95 240.288 10.47L 240.288 27.09C 240.288 27.61 240.478 28.06 240.858 28.44C 241.238 28.8 241.688 28.98 242.208 28.98L 242.598 28.98L 242.598 29.28L 233.478 29.28L 233.478 28.98L 233.868 28.98ZM 233.974 28.98C 234.494 28.98 234.934 28.8 235.294 28.44C 235.674 28.06 235.874 27.61 235.894 27.09L 235.894 10.38C 235.834 9.68 235.504 9.16 234.904 8.82C 234.604 8.66 234.294 8.58 233.974 8.58L 233.584 8.58L 233.584 8.28L 245.074 8.28C 245.694 8.28 246.374 8.22 247.114 8.1C 247.854 7.98 248.374 7.86 248.674 7.74L 248.674 12.99L 248.374 12.99L 248.374 12.63C 248.374 11.73 248.104 11.01 247.564 10.47C 247.044 9.91 246.334 9.61 245.434 9.57L 240.394 9.57L 240.394 18.3L 244.354 18.3C 245.094 18.28 245.704 18.03 246.184 17.55C 246.664 17.05 246.904 16.44 246.904 15.72L 246.904 15.45L 247.204 15.45L 247.204 22.38L 246.904 22.38L 246.904 22.14C 246.904 21.14 246.504 20.4 245.704 19.92C 245.304 19.7 244.864 19.58 244.384 19.56L 240.394 19.56L 240.394 27.99L 244.324 27.99C 245.784 27.99 247.004 27.57 247.984 26.73C 248.984 25.89 249.724 24.7 250.204 23.16L 250.504 23.16L 249.124 29.28L 233.584 29.28L 233.584 28.98L 233.974 28.98ZM 275.76 8.58C 275.26 8.58 274.83 8.76 274.47 9.12C 274.11 9.46 273.92 9.88 273.9 10.38L 273.9 25.86C 273.9 27.2 273.99 28.33 274.17 29.25L 274.26 29.7L 273.99 29.7L 258.84 15.27L 258.84 27.18C 258.84 27.68 259.02 28.11 259.38 28.47C 259.74 28.81 260.17 28.98 260.67 28.98L 261.24 28.98L 261.24 29.28L 252.15 29.28L 252.15 28.98L 252.69 28.98C 253.21 28.98 253.65 28.81 254.01 28.47C 254.37 28.11 254.55 27.67 254.55 27.15L 254.55 11.58C 254.55 10.26 254.46 9.16 254.28 8.28L 254.22 7.83L 254.49 7.83L 269.64 22.26L 269.64 10.41C 269.62 9.89 269.43 9.46 269.07 9.12C 268.71 8.76 268.28 8.58 267.78 8.58L 267.24 8.58L 267.24 8.28L 276.33 8.28L 276.33 8.58L 275.76 8.58Z"/>
</defs>
</svg>
