<svg width="169" height="18" viewBox="0 0 169 18" version="1.1" xmlns="http://www.w3.org/2000/svg" xmlns:xlink="http://www.w3.org/1999/xlink" xmlns:figma="http://www.figma.com/figma/ns">
<title>Cook n K tchen</title>
<desc>Created using Figma</desc>
<g id="Canvas" transform="translate(737 278)" figma:type="canvas">
<g id="Cook n K tchen" style="mix-blend-mode:normal;isolation:isolate;" figma:type="text">
<use xlink:href="#path0_fill" transform="translate(-737 -282)" fill="#F05F40" style="mix-blend-mode:darken;"/>
</g>
<g id="fire" style="mix-blend-mode:normal;" figma:type="frame">
<g id="Vector" style="mix-blend-mode:normal;" figma:type="vector">
<use xlink:href="#path1_fill" transform="matrix(-1 -1.22465e-16 1.22465e-16 -1 -672 -264)" fill="#F05F40" style="mix-blend-mode:normal;"/>
</g>
</g>
<g id="fire" style="mix-blend-mode:normal;" figma:type="frame">
<g id="Vector" style="mix-blend-mode:normal;" figma:type="vector">
<use xlink:href="#path1_fill" transform="matrix(-1 -1.22465e-16 1.22465e-16 -1 -630 -264)" fill="#F05F40" style="mix-blend-mode:normal;"/>
</g>
</g>
</g>
<defs>
<path id="path0_fill" d="M 14.544 10.53C 14.58 10.89 14.598 11.346 14.598 11.898C 14.598 12.438 14.49 13.104 14.274 13.896C 14.058 14.676 13.668 15.366 13.104 15.966C 11.952 17.202 10.368 17.82 8.352 17.82C 5.904 17.82 3.972 17.22 2.556 16.02C 1.14 14.808 0.432 13.23 0.432 11.286C 0.432 9.33 1.146 7.746 2.574 6.534C 4.014 5.322 5.91 4.716 8.262 4.716C 9.162 4.716 10.02 4.806 10.836 4.986C 11.652 5.166 12.33 5.4 12.87 5.688L 12.906 8.784L 12.762 8.784C 12.558 8.016 12.216 7.374 11.736 6.858C 10.872 5.934 9.708 5.472 8.244 5.472C 6.78 5.472 5.598 5.994 4.698 7.038C 3.81 8.082 3.366 9.468 3.366 11.196C 3.366 12.912 3.828 14.31 4.752 15.39C 5.688 16.47 6.972 17.028 8.604 17.064C 10.368 17.064 11.772 16.5 12.816 15.372C 13.86 14.244 14.382 12.714 14.382 10.782C 14.382 10.698 14.382 10.614 14.382 10.53L 14.544 10.53ZM 22.9493 4.716C 25.1693 4.716 26.9333 5.304 28.2413 6.48C 29.5493 7.656 30.2033 9.252 30.2033 11.268C 30.2033 13.284 29.5493 14.88 28.2413 16.056C 26.9333 17.232 25.1693 17.82 22.9493 17.82C 20.7293 17.82 18.9653 17.232 17.6573 16.056C 16.3493 14.88 15.6953 13.284 15.6953 11.268C 15.6953 9.936 15.9893 8.778 16.5773 7.794C 17.1773 6.798 18.0233 6.036 19.1153 5.508C 20.2073 4.98 21.4853 4.716 22.9493 4.716ZM 19.7993 15.516C 20.5793 16.548 21.6293 17.064 22.9493 17.064C 24.2693 17.064 25.3133 16.548 26.0813 15.516C 26.8613 14.472 27.2513 13.056 27.2513 11.268C 27.2513 10.092 27.0773 9.066 26.7293 8.19C 26.3813 7.314 25.8833 6.642 25.2353 6.174C 24.5873 5.706 23.8253 5.472 22.9493 5.472C 21.6293 5.472 20.5793 5.994 19.7993 7.038C 19.0313 8.07 18.6473 9.48 18.6473 11.268C 18.6473 13.056 19.0313 14.472 19.7993 15.516ZM 30.42 4.716C 32.64 4.716 34.404 5.304 35.712 6.48C 37.02 7.656 37.674 9.252 37.674 11.268C 37.674 13.284 37.02 14.88 35.712 16.056C 34.404 17.232 32.64 17.82 30.42 17.82C 28.2 17.82 26.436 17.232 25.128 16.056C 23.82 14.88 23.166 13.284 23.166 11.268C 23.166 9.936 23.46 8.778 24.048 7.794C 24.648 6.798 25.494 6.036 26.586 5.508C 27.678 4.98 28.956 4.716 30.42 4.716ZM 27.27 15.516C 28.05 16.548 29.1 17.064 30.42 17.064C 31.74 17.064 32.784 16.548 33.552 15.516C 34.332 14.472 34.722 13.056 34.722 11.268C 34.722 10.092 34.548 9.066 34.2 8.19C 33.852 7.314 33.354 6.642 32.706 6.174C 32.058 5.706 31.296 5.472 30.42 5.472C 29.1 5.472 28.05 5.994 27.27 7.038C 26.502 8.07 26.118 9.48 26.118 11.268C 26.118 13.056 26.502 14.472 27.27 15.516ZM 38.9587 17.388C 39.2708 17.388 39.5347 17.28 39.7507 17.064C 39.9787 16.836 40.0987 16.566 40.1108 16.254L 40.1108 6.264C 40.0987 5.832 39.9007 5.508 39.5168 5.292C 39.3488 5.196 39.1627 5.148 38.9587 5.148L 38.7247 5.148L 38.7247 4.968L 44.1967 4.968L 44.1787 5.148L 43.9628 5.148C 43.5307 5.148 43.2008 5.334 42.9727 5.706C 42.8648 5.874 42.8107 6.06 42.8107 6.264L 42.8107 16.254C 42.8107 16.566 42.9248 16.836 43.1527 17.064C 43.3807 17.28 43.6508 17.388 43.9628 17.388L 44.1787 17.388L 44.1967 17.568L 38.7247 17.568L 38.7247 17.388L 38.9587 17.388ZM 51.9548 17.568L 50.4787 17.568C 48.6548 17.568 47.3648 17.07 46.6087 16.074C 44.4607 13.158 43.3867 11.676 43.3867 11.628L 47.6527 5.976C 47.7488 5.856 47.7968 5.748 47.7968 5.652C 47.7968 5.556 47.7788 5.472 47.7427 5.4C 47.6468 5.22 47.4787 5.13 47.2387 5.13L 47.0587 5.13L 47.0587 4.968L 51.1808 4.968L 51.1808 5.13L 51.1088 5.13C 50.3047 5.13 49.6507 5.418 49.1467 5.994L 45.6367 10.152L 50.1188 16.272C 50.6707 16.992 51.2827 17.364 51.9548 17.388L 51.9548 17.568ZM 79.7802 5.148C 79.4802 5.148 79.2222 5.256 79.0062 5.472C 78.7902 5.676 78.6762 5.928 78.6642 6.228L 78.6642 15.516C 78.6642 16.32 78.7182 16.998 78.8262 17.55L 78.8802 17.82L 78.7182 17.82L 69.6282 9.162L 69.6282 16.308C 69.6282 16.608 69.7362 16.866 69.9522 17.082C 70.1682 17.286 70.4262 17.388 70.7262 17.388L 71.0682 17.388L 71.0682 17.568L 65.6142 17.568L 65.6142 17.388L 65.9382 17.388C 66.2502 17.388 66.5142 17.286 66.7302 17.082C 66.9462 16.866 67.0542 16.602 67.0542 16.29L 67.0542 6.948C 67.0542 6.156 67.0002 5.496 66.8922 4.968L 66.8562 4.698L 67.0182 4.698L 76.1082 13.356L 76.1082 6.246C 76.0962 5.934 75.9822 5.676 75.7662 5.472C 75.5502 5.256 75.2922 5.148 74.9922 5.148L 74.6682 5.148L 74.6682 4.968L 80.1222 4.968L 80.1222 5.148L 79.7802 5.148ZM 86.1384 17.388C 86.4504 17.388 86.7144 17.28 86.9304 17.064C 87.1584 16.836 87.2784 16.566 87.2904 16.254L 87.2904 6.264C 87.2784 5.832 87.0804 5.508 86.6964 5.292C 86.5284 5.196 86.3424 5.148 86.1384 5.148L 85.9044 5.148L 85.9044 4.968L 91.3764 4.968L 91.3584 5.148L 91.1424 5.148C 90.8304 5.148 90.5604 5.256 90.3324 5.472C 90.1044 5.688 89.9904 5.952 89.9904 6.264L 89.9904 16.254C 89.9904 16.566 90.1044 16.836 90.3324 17.064C 90.5604 17.28 90.8304 17.388 91.1424 17.388L 91.3584 17.388L 91.3764 17.568L 85.9044 17.568L 85.9044 17.388L 86.1384 17.388ZM 104.012 20.628C 103.136 21.084 102.338 21.312 101.618 21.312C 100.898 21.312 100.25 21.21 99.6744 21.006C 98.2464 20.49 96.7884 19.308 95.3004 17.46L 90.5664 11.628L 94.8324 5.976C 94.9284 5.856 94.9764 5.748 94.9764 5.652C 94.9764 5.556 94.9584 5.472 94.9224 5.4C 94.8264 5.22 94.6584 5.13 94.4184 5.13L 94.2384 5.13L 94.2384 4.968L 98.3604 4.968L 98.3604 5.13L 98.2884 5.13C 97.4844 5.13 96.8304 5.418 96.3264 5.994L 92.8164 10.17L 97.7124 16.254C 98.8044 17.694 99.8304 18.738 100.79 19.386C 101.75 20.034 102.818 20.388 103.994 20.448L 104.012 20.628ZM 115.204 5.706L 115.204 16.272C 115.216 16.584 115.33 16.848 115.546 17.064C 115.774 17.28 116.044 17.388 116.356 17.388L 116.572 17.388L 116.59 17.568L 111.118 17.568L 111.118 17.388L 111.352 17.388C 111.652 17.388 111.91 17.28 112.126 17.064C 112.354 16.848 112.48 16.59 112.504 16.29L 112.504 5.706L 110.074 5.706C 109.522 5.718 109.084 5.892 108.76 6.228C 108.436 6.564 108.274 7.002 108.274 7.542L 108.274 7.758L 108.094 7.758L 108.094 4.626C 108.262 4.698 108.562 4.77 108.994 4.842C 109.438 4.914 109.846 4.95 110.218 4.95L 117.472 4.95C 118.06 4.938 118.54 4.89 118.912 4.806C 119.284 4.722 119.512 4.662 119.596 4.626L 119.596 7.758L 119.416 7.758L 119.416 7.542C 119.416 7.002 119.254 6.564 118.93 6.228C 118.606 5.892 118.168 5.718 117.616 5.706L 115.204 5.706ZM 127.898 17.802C 125.582 17.802 123.764 17.22 122.444 16.056C 121.124 14.892 120.464 13.296 120.464 11.268C 120.464 9.24 121.118 7.644 122.426 6.48C 123.734 5.304 125.528 4.716 127.808 4.716C 129.548 4.716 131.042 5.04 132.29 5.688L 132.326 8.784L 132.182 8.784C 131.57 6.576 130.172 5.472 127.988 5.472C 126.572 5.472 125.45 5.988 124.622 7.02C 123.806 8.04 123.398 9.438 123.398 11.214C 123.398 12.99 123.788 14.4 124.568 15.444C 125.36 16.488 126.428 17.028 127.772 17.064C 129.164 17.064 130.226 16.716 130.958 16.02C 131.702 15.3 132.218 14.064 132.506 12.312L 132.65 12.312L 132.83 15.408C 131.858 17.016 130.214 17.814 127.898 17.802ZM 143.168 17.388C 143.48 17.388 143.72 17.31 143.888 17.154C 144.164 16.878 144.308 16.584 144.32 16.272L 144.32 11.682L 138.488 11.682L 138.488 16.254C 138.488 16.566 138.602 16.836 138.83 17.064C 139.058 17.28 139.328 17.388 139.64 17.388L 139.856 17.388L 139.874 17.568L 134.402 17.568L 134.402 17.388L 134.636 17.388C 134.948 17.388 135.212 17.28 135.428 17.064C 135.656 16.836 135.776 16.566 135.788 16.254L 135.788 6.264C 135.776 5.952 135.656 5.688 135.428 5.472C 135.212 5.256 134.948 5.148 134.636 5.148L 134.402 5.148L 134.402 4.968L 139.874 4.968L 139.856 5.148L 139.64 5.148C 139.328 5.148 139.058 5.256 138.83 5.472C 138.602 5.688 138.488 5.952 138.488 6.264L 138.488 10.908L 144.32 10.908L 144.32 6.264C 144.308 5.952 144.188 5.688 143.96 5.472C 143.744 5.256 143.48 5.148 143.168 5.148L 142.934 5.148L 142.934 4.968L 148.406 4.968L 148.406 5.148L 148.172 5.148C 147.86 5.148 147.59 5.262 147.362 5.49C 147.134 5.706 147.02 5.97 147.02 6.282L 147.02 16.254C 147.02 16.566 147.134 16.836 147.362 17.064C 147.59 17.28 147.86 17.388 148.172 17.388L 148.406 17.388L 148.406 17.568L 142.934 17.568L 142.934 17.388L 143.168 17.388ZM 143.232 17.388C 143.544 17.388 143.808 17.28 144.024 17.064C 144.252 16.836 144.372 16.566 144.384 16.254L 144.384 6.228C 144.348 5.808 144.15 5.496 143.79 5.292C 143.61 5.196 143.424 5.148 143.232 5.148L 142.998 5.148L 142.998 4.968L 149.892 4.968C 150.264 4.968 150.672 4.932 151.116 4.86C 151.56 4.788 151.872 4.716 152.052 4.644L 152.052 7.794L 151.872 7.794L 151.872 7.578C 151.872 7.038 151.71 6.606 151.386 6.282C 151.074 5.946 150.648 5.766 150.108 5.742L 147.084 5.742L 147.084 10.98L 149.46 10.98C 149.904 10.968 150.27 10.818 150.558 10.53C 150.846 10.23 150.99 9.864 150.99 9.432L 150.99 9.27L 151.17 9.27L 151.17 13.428L 150.99 13.428L 150.99 13.284C 150.99 12.684 150.75 12.24 150.27 11.952C 150.03 11.82 149.766 11.748 149.478 11.736L 147.084 11.736L 147.084 16.794L 149.442 16.794C 150.318 16.794 151.05 16.542 151.638 16.038C 152.238 15.534 152.682 14.82 152.97 13.896L 153.15 13.896L 152.322 17.568L 142.998 17.568L 142.998 17.388L 143.232 17.388ZM 168.304 5.148C 168.004 5.148 167.746 5.256 167.53 5.472C 167.314 5.676 167.2 5.928 167.188 6.228L 167.188 15.516C 167.188 16.32 167.242 16.998 167.35 17.55L 167.404 17.82L 167.242 17.82L 158.152 9.162L 158.152 16.308C 158.152 16.608 158.26 16.866 158.476 17.082C 158.692 17.286 158.95 17.388 159.25 17.388L 159.592 17.388L 159.592 17.568L 154.138 17.568L 154.138 17.388L 154.462 17.388C 154.774 17.388 155.038 17.286 155.254 17.082C 155.47 16.866 155.578 16.602 155.578 16.29L 155.578 6.948C 155.578 6.156 155.524 5.496 155.416 4.968L 155.38 4.698L 155.542 4.698L 164.632 13.356L 164.632 6.246C 164.62 5.934 164.506 5.676 164.29 5.472C 164.074 5.256 163.816 5.148 163.516 5.148L 163.192 5.148L 163.192 4.968L 168.646 4.968L 168.646 5.148L 168.304 5.148Z"/>
<path id="path1_fill" d="M 7 12.3036L 7 12.7679C 7 12.8307 6.98426 12.8851 6.95277 12.9311C 6.92128 12.977 6.884 13 6.84091 13L 0.159091 13C 0.116004 13 0.0787169 12.977 0.0472301 12.9311C 0.0157434 12.8851 0 12.8307 0 12.7679L 0 12.3036C 0 12.2407 0.0157434 12.1863 0.0472301 12.1403C 0.0787169 12.0944 0.116004 12.0714 0.159091 12.0714L 6.84091 12.0714C 6.884 12.0714 6.92128 12.0944 6.95277 12.1403C 6.98426 12.1863 7 12.2407 7 12.3036ZM 5.72727 4.64286C 5.72727 5.02009 5.68667 5.3683 5.60547 5.6875C 5.52427 6.0067 5.41821 6.27874 5.28729 6.50363C 5.15637 6.72852 5.01136 6.94131 4.85227 7.14202C 4.69318 7.34273 4.53409 7.53013 4.375 7.70424C 4.21591 7.87835 4.0709 8.05246 3.93999 8.22656C 3.80907 8.40067 3.70301 8.59775 3.6218 8.8178C 3.5406 9.03785 3.5 9.27121 3.5 9.51786C 3.5 9.98214 3.61103 10.5238 3.8331 11.1429L 3.81321 11.1356L 3.81818 11.1429C 3.51989 10.9446 3.25473 10.7439 3.02273 10.5407C 2.79072 10.3376 2.5612 10.0958 2.33416 9.81529C 2.10713 9.53478 1.91903 9.23856 1.76989 8.92662C 1.62074 8.61468 1.50059 8.25074 1.40945 7.83482C 1.3183 7.4189 1.27273 6.97396 1.27273 6.5C 1.27273 6.12277 1.31333 5.77455 1.39453 5.45536C 1.47573 5.13616 1.58179 4.86412 1.71271 4.63923C 1.84363 4.41434 1.98864 4.20154 2.14773 4.00084C 2.30682 3.80013 2.46591 3.61272 2.625 3.43862C 2.78409 3.26451 2.9291 3.0904 3.06001 2.91629C 3.19093 2.74219 3.29699 2.54511 3.3782 2.32506C 3.4594 2.105 3.5 1.87165 3.5 1.625C 3.5 1.17039 3.39062 0.62872 3.17188 0L 3.18679 0.00725446L 3.18182 0C 3.48011 0.198289 3.74527 0.398996 3.97727 0.602121C 4.20928 0.805246 4.4388 1.04706 4.66584 1.32757C 4.89287 1.60807 5.08097 1.9043 5.23011 2.21624C 5.37926 2.52818 5.49941 2.89211 5.59055 3.30804C 5.6817 3.72396 5.72727 4.1689 5.72727 4.64286Z"/>
</defs>
</svg>
