<svg width="230" height="31" viewBox="0 0 230 31" version="1.1" xmlns="http://www.w3.org/2000/svg" xmlns:xlink="http://www.w3.org/1999/xlink" xmlns:figma="http://www.figma.com/figma/ns">
<title>saltdKurry</title>
<desc>Created using Figma</desc>
<g id="Canvas" transform="translate(741 276)" figma:type="canvas">
<g id="saltdKurry" style="mix-blend-mode:normal;isolation:isolate;" filter="url(#filter0_d)" figma:type="text">
<use xlink:href="#path0_fill" transform="translate(-737 -282)" fill="#F05F40" style="mix-blend-mode:darken;"/>
</g>
</g>
<defs>
<filter id="filter0_d" filterUnits="userSpaceOnUse" x="-741" y="-276" width="230" height="31" color-interpolation-filters="sRGB">
<feFlood flood-opacity="0" result="BackgroundImageFix"/>
<desc>type="dropShadow" x="0" y="4" size="4" spread="0" color="0,0,0,0.25" blend="normal"</desc>
<feColorMatrix in="SourceAlpha" type="matrix" values="0 0 0 0 0 0 0 0 0 0 0 0 0 0 0 0 0 0 255 0"/>
<feOffset dx="0" dy="4"/>
<feGaussianBlur stdDeviation="2"/>
<feColorMatrix type="matrix" values="0 0 0 0 0 0 0 0 0 0 0 0 0 0 0 0 0 0 0.25 0"/>
<feBlend mode="normal" in2="BackgroundImageFix" result="effect1_dropShadow"/>
<feBlend mode="normal" in="SourceGraphic" in2="effect1_dropShadow" result="shape"/>
</filter>
<path id="path0_fill" d="M 19.392 14.04C 19.44 14.52 19.464 15.128 19.464 15.864C 19.464 16.584 19.32 17.472 19.032 18.528C 18.744 19.568 18.224 20.488 17.472 21.288C 15.936 22.936 13.824 23.76 11.136 23.76C 7.872 23.76 5.296 22.96 3.408 21.36C 1.52 19.744 0.576 17.64 0.576 15.048C 0.576 12.44 1.528 10.328 3.432 8.712C 5.352 7.096 7.88 6.288 11.016 6.288C 12.216 6.288 13.36 6.408 14.448 6.648C 15.536 6.888 16.44 7.2 17.16 7.584L 17.208 11.712L 17.016 11.712C 16.744 10.688 16.288 9.832 15.648 9.144C 14.496 7.912 12.944 7.296 10.992 7.296C 9.04 7.296 7.464 7.992 6.264 9.384C 5.08 10.776 4.488 12.624 4.488 14.928C 4.488 17.216 5.104 19.08 6.336 20.52C 7.584 21.96 9.296 22.704 11.472 22.752C 13.824 22.752 15.696 22 17.088 20.496C 18.48 18.992 19.176 16.952 19.176 14.376C 19.176 14.264 19.176 14.152 19.176 14.04L 19.392 14.04ZM 30.5991 6.288C 33.5591 6.288 35.9111 7.072 37.6551 8.64C 39.3991 10.208 40.2711 12.336 40.2711 15.024C 40.2711 17.712 39.3991 19.84 37.6551 21.408C 35.9111 22.976 33.5591 23.76 30.5991 23.76C 27.6391 23.76 25.2871 22.976 23.5431 21.408C 21.7991 19.84 20.9271 17.712 20.9271 15.024C 20.9271 13.248 21.3191 11.704 22.1031 10.392C 22.9031 9.064 24.0311 8.048 25.4871 7.344C 26.9431 6.64 28.6471 6.288 30.5991 6.288ZM 26.3991 20.688C 27.4391 22.064 28.8391 22.752 30.5991 22.752C 32.3591 22.752 33.7511 22.064 34.7751 20.688C 35.8151 19.296 36.3351 17.408 36.3351 15.024C 36.3351 13.456 36.1031 12.088 35.6391 10.92C 35.1751 9.752 34.5111 8.856 33.6471 8.232C 32.7831 7.608 31.7671 7.296 30.5991 7.296C 28.8391 7.296 27.4391 7.992 26.3991 9.384C 25.3751 10.76 24.8631 12.64 24.8631 15.024C 24.8631 17.408 25.3751 19.296 26.3991 20.688ZM 40.56 6.288C 43.52 6.288 45.872 7.072 47.616 8.64C 49.36 10.208 50.232 12.336 50.232 15.024C 50.232 17.712 49.36 19.84 47.616 21.408C 45.872 22.976 43.52 23.76 40.56 23.76C 37.6 23.76 35.248 22.976 33.504 21.408C 31.76 19.84 30.888 17.712 30.888 15.024C 30.888 13.248 31.28 11.704 32.064 10.392C 32.864 9.064 33.992 8.048 35.448 7.344C 36.904 6.64 38.608 6.288 40.56 6.288ZM 36.36 20.688C 37.4 22.064 38.8 22.752 40.56 22.752C 42.32 22.752 43.712 22.064 44.736 20.688C 45.776 19.296 46.296 17.408 46.296 15.024C 46.296 13.456 46.064 12.088 45.6 10.92C 45.136 9.752 44.472 8.856 43.608 8.232C 42.744 7.608 41.728 7.296 40.56 7.296C 38.8 7.296 37.4 7.992 36.36 9.384C 35.336 10.76 34.824 12.64 34.824 15.024C 34.824 17.408 35.336 19.296 36.36 20.688ZM 51.945 23.184C 52.361 23.184 52.713 23.04 53.001 22.752C 53.305 22.448 53.465 22.088 53.481 21.672L 53.481 8.352C 53.465 7.776 53.201 7.344 52.689 7.056C 52.465 6.928 52.217 6.864 51.945 6.864L 51.633 6.864L 51.633 6.624L 58.929 6.624L 58.905 6.864L 58.617 6.864C 58.041 6.864 57.601 7.112 57.297 7.608C 57.153 7.832 57.081 8.08 57.081 8.352L 57.081 21.672C 57.081 22.088 57.233 22.448 57.537 22.752C 57.841 23.04 58.201 23.184 58.617 23.184L 58.905 23.184L 58.929 23.424L 51.633 23.424L 51.633 23.184L 51.945 23.184ZM 69.273 23.424L 67.305 23.424C 64.873 23.424 63.153 22.76 62.145 21.432C 59.281 17.544 57.849 15.568 57.849 15.504L 63.537 7.968C 63.665 7.808 63.729 7.664 63.729 7.536C 63.729 7.408 63.705 7.296 63.657 7.2C 63.529 6.96 63.305 6.84 62.985 6.84L 62.745 6.84L 62.745 6.624L 68.241 6.624L 68.241 6.84L 68.145 6.84C 67.073 6.84 66.201 7.224 65.529 7.992L 60.849 13.536L 66.825 21.696C 67.561 22.656 68.377 23.152 69.273 23.184L 69.273 23.424ZM 84.4616 23.184L 84.7736 23.184L 84.7736 23.424L 77.4776 23.424L 77.4776 23.184L 77.7896 23.184C 78.2056 23.184 78.5576 23.04 78.8456 22.752C 79.1496 22.448 79.3096 22.088 79.3256 21.672L 79.3256 7.608L 77.0456 7.704C 75.5416 7.768 74.7896 8.328 74.7896 9.384C 74.7896 9.816 74.9336 10.184 75.2216 10.488C 75.5256 10.776 75.9416 10.92 76.4696 10.92C 76.5176 10.92 76.5656 10.92 76.6136 10.92L 76.6136 11.064C 76.2936 11.176 76.0216 11.232 75.7976 11.232C 75.0776 11.232 74.5256 10.976 74.1416 10.464C 73.8696 10.112 73.7336 9.712 73.7336 9.264C 73.7336 8.56 74.0136 7.984 74.5736 7.536C 75.1176 7.072 75.9656 6.8 77.1176 6.72C 77.3256 6.704 77.9976 6.672 79.1336 6.624C 81.7256 6.528 83.6056 6.368 84.7736 6.144L 84.8216 6.384C 84.1336 6.496 83.6456 6.728 83.3576 7.08C 83.0856 7.432 82.9416 7.952 82.9256 8.64L 82.9256 21.672C 82.9416 22.088 83.0936 22.448 83.3816 22.752C 83.6856 23.04 84.0456 23.184 84.4616 23.184ZM 105.319 6.864C 104.919 6.864 104.575 7.008 104.287 7.296C 103.999 7.568 103.847 7.904 103.831 8.304L 103.831 20.688C 103.831 21.76 103.903 22.664 104.047 23.4L 104.119 23.76L 103.903 23.76L 91.7829 12.216L 91.7829 21.744C 91.7829 22.144 91.9269 22.488 92.2149 22.776C 92.5029 23.048 92.8469 23.184 93.2469 23.184L 93.7029 23.184L 93.7029 23.424L 86.4309 23.424L 86.4309 23.184L 86.8629 23.184C 87.2789 23.184 87.6309 23.048 87.9189 22.776C 88.2069 22.488 88.3509 22.136 88.3509 21.72L 88.3509 9.264C 88.3509 8.208 88.2789 7.328 88.1349 6.624L 88.0869 6.264L 88.3029 6.264L 100.423 17.808L 100.423 8.328C 100.407 7.912 100.255 7.568 99.9669 7.296C 99.6789 7.008 99.3349 6.864 98.9349 6.864L 98.5029 6.864L 98.5029 6.624L 105.775 6.624L 105.775 6.864L 105.319 6.864ZM 113.797 23.184C 114.213 23.184 114.565 23.04 114.853 22.752C 115.157 22.448 115.317 22.088 115.333 21.672L 115.333 8.352C 115.317 7.776 115.053 7.344 114.541 7.056C 114.317 6.928 114.069 6.864 113.797 6.864L 113.485 6.864L 113.485 6.624L 120.781 6.624L 120.757 6.864L 120.469 6.864C 120.053 6.864 119.693 7.008 119.389 7.296C 119.085 7.584 118.933 7.936 118.933 8.352L 118.933 21.672C 118.933 22.088 119.085 22.448 119.389 22.752C 119.693 23.04 120.053 23.184 120.469 23.184L 120.757 23.184L 120.781 23.424L 113.485 23.424L 113.485 23.184L 113.797 23.184ZM 137.629 27.504C 136.461 28.112 135.397 28.416 134.437 28.416C 133.477 28.416 132.613 28.28 131.845 28.008C 129.941 27.32 127.997 25.744 126.013 23.28L 119.701 15.504L 125.389 7.968C 125.517 7.808 125.581 7.664 125.581 7.536C 125.581 7.408 125.557 7.296 125.509 7.2C 125.381 6.96 125.157 6.84 124.837 6.84L 124.597 6.84L 124.597 6.624L 130.093 6.624L 130.093 6.84L 129.997 6.84C 128.925 6.84 128.053 7.224 127.381 7.992L 122.701 13.56L 129.229 21.672C 130.685 23.592 132.053 24.984 133.333 25.848C 134.613 26.712 136.037 27.184 137.605 27.264L 137.629 27.504ZM 132.054 23.184C 132.47 23.184 132.822 23.04 133.11 22.752C 133.414 22.448 133.574 22.088 133.59 21.672L 133.59 8.352C 133.574 7.936 133.414 7.584 133.11 7.296C 132.822 7.008 132.47 6.864 132.054 6.864L 131.742 6.864L 131.742 6.624L 139.038 6.624L 139.014 6.864L 138.726 6.864C 138.31 6.864 137.95 7.008 137.646 7.296C 137.342 7.584 137.19 7.936 137.19 8.352L 137.19 21.672C 137.19 22.088 137.342 22.448 137.646 22.752C 137.95 23.04 138.31 23.184 138.726 23.184L 139.014 23.184L 139.038 23.424L 131.742 23.424L 131.742 23.184L 132.054 23.184ZM 149.808 7.608L 149.808 21.696C 149.824 22.112 149.976 22.464 150.264 22.752C 150.568 23.04 150.928 23.184 151.344 23.184L 151.632 23.184L 151.656 23.424L 144.36 23.424L 144.36 23.184L 144.672 23.184C 145.072 23.184 145.416 23.04 145.704 22.752C 146.008 22.464 146.176 22.12 146.208 21.72L 146.208 7.608L 142.968 7.608C 142.232 7.624 141.648 7.856 141.216 8.304C 140.784 8.752 140.568 9.336 140.568 10.056L 140.568 10.344L 140.328 10.344L 140.328 6.168C 140.552 6.264 140.952 6.36 141.528 6.456C 142.12 6.552 142.664 6.6 143.16 6.6L 152.832 6.6C 153.616 6.584 154.256 6.52 154.752 6.408C 155.248 6.296 155.552 6.216 155.664 6.168L 155.664 10.344L 155.424 10.344L 155.424 10.056C 155.424 9.336 155.208 8.752 154.776 8.304C 154.344 7.856 153.76 7.624 153.024 7.608L 149.808 7.608ZM 166.734 23.736C 163.646 23.736 161.222 22.96 159.462 21.408C 157.702 19.856 156.822 17.728 156.822 15.024C 156.822 12.32 157.694 10.192 159.438 8.64C 161.182 7.072 163.574 6.288 166.614 6.288C 168.934 6.288 170.926 6.72 172.59 7.584L 172.638 11.712L 172.446 11.712C 171.63 8.768 169.766 7.296 166.854 7.296C 164.966 7.296 163.47 7.984 162.366 9.36C 161.278 10.72 160.734 12.584 160.734 14.952C 160.734 17.32 161.254 19.2 162.294 20.592C 163.35 21.984 164.774 22.704 166.566 22.752C 168.422 22.752 169.838 22.288 170.814 21.36C 171.806 20.4 172.494 18.752 172.878 16.416L 173.07 16.416L 173.31 20.544C 172.014 22.688 169.822 23.752 166.734 23.736ZM 187.094 23.184C 187.51 23.184 187.83 23.08 188.054 22.872C 188.422 22.504 188.614 22.112 188.63 21.696L 188.63 15.576L 180.854 15.576L 180.854 21.672C 180.854 22.088 181.006 22.448 181.31 22.752C 181.614 23.04 181.974 23.184 182.39 23.184L 182.678 23.184L 182.702 23.424L 175.406 23.424L 175.406 23.184L 175.718 23.184C 176.134 23.184 176.486 23.04 176.774 22.752C 177.078 22.448 177.238 22.088 177.254 21.672L 177.254 8.352C 177.238 7.936 177.078 7.584 176.774 7.296C 176.486 7.008 176.134 6.864 175.718 6.864L 175.406 6.864L 175.406 6.624L 182.702 6.624L 182.678 6.864L 182.39 6.864C 181.974 6.864 181.614 7.008 181.31 7.296C 181.006 7.584 180.854 7.936 180.854 8.352L 180.854 14.544L 188.63 14.544L 188.63 8.352C 188.614 7.936 188.454 7.584 188.15 7.296C 187.862 7.008 187.51 6.864 187.094 6.864L 186.782 6.864L 186.782 6.624L 194.078 6.624L 194.078 6.864L 193.766 6.864C 193.35 6.864 192.99 7.016 192.686 7.32C 192.382 7.608 192.23 7.96 192.23 8.376L 192.23 21.672C 192.23 22.088 192.382 22.448 192.686 22.752C 192.99 23.04 193.35 23.184 193.766 23.184L 194.078 23.184L 194.078 23.424L 186.782 23.424L 186.782 23.184L 187.094 23.184ZM 187.179 23.184C 187.595 23.184 187.947 23.04 188.235 22.752C 188.539 22.448 188.699 22.088 188.715 21.672L 188.715 8.304C 188.667 7.744 188.403 7.328 187.923 7.056C 187.683 6.928 187.435 6.864 187.179 6.864L 186.867 6.864L 186.867 6.624L 196.059 6.624C 196.555 6.624 197.099 6.576 197.691 6.48C 198.283 6.384 198.699 6.288 198.939 6.192L 198.939 10.392L 198.699 10.392L 198.699 10.104C 198.699 9.384 198.483 8.808 198.051 8.376C 197.635 7.928 197.067 7.688 196.347 7.656L 192.315 7.656L 192.315 14.64L 195.483 14.64C 196.075 14.624 196.563 14.424 196.947 14.04C 197.331 13.64 197.523 13.152 197.523 12.576L 197.523 12.36L 197.763 12.36L 197.763 17.904L 197.523 17.904L 197.523 17.712C 197.523 16.912 197.203 16.32 196.563 15.936C 196.243 15.76 195.891 15.664 195.507 15.648L 192.315 15.648L 192.315 22.392L 195.459 22.392C 196.627 22.392 197.603 22.056 198.387 21.384C 199.187 20.712 199.779 19.76 200.163 18.528L 200.403 18.528L 199.299 23.424L 186.867 23.424L 186.867 23.184L 187.179 23.184ZM 220.608 6.864C 220.208 6.864 219.864 7.008 219.576 7.296C 219.288 7.568 219.136 7.904 219.12 8.304L 219.12 20.688C 219.12 21.76 219.192 22.664 219.336 23.4L 219.408 23.76L 219.192 23.76L 207.072 12.216L 207.072 21.744C 207.072 22.144 207.216 22.488 207.504 22.776C 207.792 23.048 208.136 23.184 208.536 23.184L 208.992 23.184L 208.992 23.424L 201.72 23.424L 201.72 23.184L 202.152 23.184C 202.568 23.184 202.92 23.048 203.208 22.776C 203.496 22.488 203.64 22.136 203.64 21.72L 203.64 9.264C 203.64 8.208 203.568 7.328 203.424 6.624L 203.376 6.264L 203.592 6.264L 215.712 17.808L 215.712 8.328C 215.696 7.912 215.544 7.568 215.256 7.296C 214.968 7.008 214.624 6.864 214.224 6.864L 213.792 6.864L 213.792 6.624L 221.064 6.624L 221.064 6.864L 220.608 6.864Z"/>
</defs>
</svg>
