<svg width="225" height="23" viewBox="0 0 225 23" version="1.1" xmlns="http://www.w3.org/2000/svg" xmlns:xlink="http://www.w3.org/1999/xlink" xmlns:figma="http://www.figma.com/figma/ns">
<title>Cook n K tchen</title>
<desc>Created using Figma</desc>
<g id="Canvas" transform="translate(737 276)" figma:type="canvas">
<g id="Cook n K tchen" style="mix-blend-mode:normal;isolation:isolate;" figma:type="text">
<use xlink:href="#path0_fill" transform="translate(-737 -282)" fill="#F05F40" style="mix-blend-mode:darken;"/>
</g>
<g id="fire" style="mix-blend-mode:normal;" figma:type="frame">
<g id="Vector" style="mix-blend-mode:normal;" figma:type="vector">
<use xlink:href="#path1_fill" transform="matrix(-1 -1.22465e-16 1.22465e-16 -1 -650 -258)" fill="#F05F40" style="mix-blend-mode:normal;"/>
</g>
</g>
<g id="fire" style="mix-blend-mode:normal;" figma:type="frame">
<g id="Vector" style="mix-blend-mode:normal;" figma:type="vector">
<use xlink:href="#path1_fill" transform="matrix(-1 -1.22465e-16 1.22465e-16 -1 -594 -258)" fill="#F05F40" style="mix-blend-mode:normal;"/>
</g>
</g>
</g>
<defs>
<path id="path0_fill" d="M 19.392 14.04C 19.44 14.52 19.464 15.128 19.464 15.864C 19.464 16.584 19.32 17.472 19.032 18.528C 18.744 19.568 18.224 20.488 17.472 21.288C 15.936 22.936 13.824 23.76 11.136 23.76C 7.872 23.76 5.296 22.96 3.408 21.36C 1.52 19.744 0.576 17.64 0.576 15.048C 0.576 12.44 1.528 10.328 3.432 8.712C 5.352 7.096 7.88 6.288 11.016 6.288C 12.216 6.288 13.36 6.408 14.448 6.648C 15.536 6.888 16.44 7.2 17.16 7.584L 17.208 11.712L 17.016 11.712C 16.744 10.688 16.288 9.832 15.648 9.144C 14.496 7.912 12.944 7.296 10.992 7.296C 9.04 7.296 7.464 7.992 6.264 9.384C 5.08 10.776 4.488 12.624 4.488 14.928C 4.488 17.216 5.104 19.08 6.336 20.52C 7.584 21.96 9.296 22.704 11.472 22.752C 13.824 22.752 15.696 22 17.088 20.496C 18.48 18.992 19.176 16.952 19.176 14.376C 19.176 14.264 19.176 14.152 19.176 14.04L 19.392 14.04ZM 30.5991 6.288C 33.5591 6.288 35.9111 7.072 37.6551 8.64C 39.3991 10.208 40.2711 12.336 40.2711 15.024C 40.2711 17.712 39.3991 19.84 37.6551 21.408C 35.9111 22.976 33.5591 23.76 30.5991 23.76C 27.6391 23.76 25.2871 22.976 23.5431 21.408C 21.7991 19.84 20.9271 17.712 20.9271 15.024C 20.9271 13.248 21.3191 11.704 22.1031 10.392C 22.9031 9.064 24.0311 8.048 25.4871 7.344C 26.9431 6.64 28.6471 6.288 30.5991 6.288ZM 26.3991 20.688C 27.4391 22.064 28.8391 22.752 30.5991 22.752C 32.3591 22.752 33.7511 22.064 34.7751 20.688C 35.8151 19.296 36.3351 17.408 36.3351 15.024C 36.3351 13.456 36.1031 12.088 35.6391 10.92C 35.1751 9.752 34.5111 8.856 33.6471 8.232C 32.7831 7.608 31.7671 7.296 30.5991 7.296C 28.8391 7.296 27.4391 7.992 26.3991 9.384C 25.3751 10.76 24.8631 12.64 24.8631 15.024C 24.8631 17.408 25.3751 19.296 26.3991 20.688ZM 40.56 6.288C 43.52 6.288 45.872 7.072 47.616 8.64C 49.36 10.208 50.232 12.336 50.232 15.024C 50.232 17.712 49.36 19.84 47.616 21.408C 45.872 22.976 43.52 23.76 40.56 23.76C 37.6 23.76 35.248 22.976 33.504 21.408C 31.76 19.84 30.888 17.712 30.888 15.024C 30.888 13.248 31.28 11.704 32.064 10.392C 32.864 9.064 33.992 8.048 35.448 7.344C 36.904 6.64 38.608 6.288 40.56 6.288ZM 36.36 20.688C 37.4 22.064 38.8 22.752 40.56 22.752C 42.32 22.752 43.712 22.064 44.736 20.688C 45.776 19.296 46.296 17.408 46.296 15.024C 46.296 13.456 46.064 12.088 45.6 10.92C 45.136 9.752 44.472 8.856 43.608 8.232C 42.744 7.608 41.728 7.296 40.56 7.296C 38.8 7.296 37.4 7.992 36.36 9.384C 35.336 10.76 34.824 12.64 34.824 15.024C 34.824 17.408 35.336 19.296 36.36 20.688ZM 51.945 23.184C 52.361 23.184 52.713 23.04 53.001 22.752C 53.305 22.448 53.465 22.088 53.481 21.672L 53.481 8.352C 53.465 7.776 53.201 7.344 52.689 7.056C 52.465 6.928 52.217 6.864 51.945 6.864L 51.633 6.864L 51.633 6.624L 58.929 6.624L 58.905 6.864L 58.617 6.864C 58.041 6.864 57.601 7.112 57.297 7.608C 57.153 7.832 57.081 8.08 57.081 8.352L 57.081 21.672C 57.081 22.088 57.233 22.448 57.537 22.752C 57.841 23.04 58.201 23.184 58.617 23.184L 58.905 23.184L 58.929 23.424L 51.633 23.424L 51.633 23.184L 51.945 23.184ZM 69.273 23.424L 67.305 23.424C 64.873 23.424 63.153 22.76 62.145 21.432C 59.281 17.544 57.849 15.568 57.849 15.504L 63.537 7.968C 63.665 7.808 63.729 7.664 63.729 7.536C 63.729 7.408 63.705 7.296 63.657 7.2C 63.529 6.96 63.305 6.84 62.985 6.84L 62.745 6.84L 62.745 6.624L 68.241 6.624L 68.241 6.84L 68.145 6.84C 67.073 6.84 66.201 7.224 65.529 7.992L 60.849 13.536L 66.825 21.696C 67.561 22.656 68.377 23.152 69.273 23.184L 69.273 23.424ZM 106.374 6.864C 105.974 6.864 105.63 7.008 105.342 7.296C 105.054 7.568 104.902 7.904 104.886 8.304L 104.886 20.688C 104.886 21.76 104.958 22.664 105.102 23.4L 105.174 23.76L 104.958 23.76L 92.8376 12.216L 92.8376 21.744C 92.8376 22.144 92.9816 22.488 93.2696 22.776C 93.5576 23.048 93.9016 23.184 94.3016 23.184L 94.7576 23.184L 94.7576 23.424L 87.4856 23.424L 87.4856 23.184L 87.9176 23.184C 88.3336 23.184 88.6856 23.048 88.9736 22.776C 89.2616 22.488 89.4056 22.136 89.4056 21.72L 89.4056 9.264C 89.4056 8.208 89.3336 7.328 89.1896 6.624L 89.1416 6.264L 89.3576 6.264L 101.478 17.808L 101.478 8.328C 101.462 7.912 101.31 7.568 101.022 7.296C 100.734 7.008 100.39 6.864 99.9896 6.864L 99.5576 6.864L 99.5576 6.624L 106.83 6.624L 106.83 6.864L 106.374 6.864ZM 114.851 23.184C 115.267 23.184 115.619 23.04 115.907 22.752C 116.211 22.448 116.371 22.088 116.387 21.672L 116.387 8.352C 116.371 7.776 116.107 7.344 115.595 7.056C 115.371 6.928 115.123 6.864 114.851 6.864L 114.539 6.864L 114.539 6.624L 121.835 6.624L 121.811 6.864L 121.523 6.864C 121.107 6.864 120.747 7.008 120.443 7.296C 120.139 7.584 119.987 7.936 119.987 8.352L 119.987 21.672C 119.987 22.088 120.139 22.448 120.443 22.752C 120.747 23.04 121.107 23.184 121.523 23.184L 121.811 23.184L 121.835 23.424L 114.539 23.424L 114.539 23.184L 114.851 23.184ZM 138.683 27.504C 137.515 28.112 136.451 28.416 135.491 28.416C 134.531 28.416 133.667 28.28 132.899 28.008C 130.995 27.32 129.051 25.744 127.067 23.28L 120.755 15.504L 126.443 7.968C 126.571 7.808 126.635 7.664 126.635 7.536C 126.635 7.408 126.611 7.296 126.563 7.2C 126.435 6.96 126.211 6.84 125.891 6.84L 125.651 6.84L 125.651 6.624L 131.147 6.624L 131.147 6.84L 131.051 6.84C 129.979 6.84 129.107 7.224 128.435 7.992L 123.755 13.56L 130.283 21.672C 131.739 23.592 133.107 24.984 134.387 25.848C 135.667 26.712 137.091 27.184 138.659 27.264L 138.683 27.504ZM 153.605 7.608L 153.605 21.696C 153.621 22.112 153.773 22.464 154.061 22.752C 154.365 23.04 154.725 23.184 155.141 23.184L 155.429 23.184L 155.453 23.424L 148.157 23.424L 148.157 23.184L 148.469 23.184C 148.869 23.184 149.213 23.04 149.501 22.752C 149.805 22.464 149.973 22.12 150.005 21.72L 150.005 7.608L 146.765 7.608C 146.029 7.624 145.445 7.856 145.013 8.304C 144.581 8.752 144.365 9.336 144.365 10.056L 144.365 10.344L 144.125 10.344L 144.125 6.168C 144.349 6.264 144.749 6.36 145.325 6.456C 145.917 6.552 146.461 6.6 146.957 6.6L 156.629 6.6C 157.413 6.584 158.053 6.52 158.549 6.408C 159.045 6.296 159.349 6.216 159.461 6.168L 159.461 10.344L 159.221 10.344L 159.221 10.056C 159.221 9.336 159.005 8.752 158.573 8.304C 158.141 7.856 157.557 7.624 156.821 7.608L 153.605 7.608ZM 170.531 23.736C 167.443 23.736 165.019 22.96 163.259 21.408C 161.499 19.856 160.619 17.728 160.619 15.024C 160.619 12.32 161.491 10.192 163.235 8.64C 164.979 7.072 167.371 6.288 170.411 6.288C 172.731 6.288 174.723 6.72 176.387 7.584L 176.435 11.712L 176.243 11.712C 175.427 8.768 173.563 7.296 170.651 7.296C 168.763 7.296 167.267 7.984 166.163 9.36C 165.075 10.72 164.531 12.584 164.531 14.952C 164.531 17.32 165.051 19.2 166.091 20.592C 167.147 21.984 168.571 22.704 170.363 22.752C 172.219 22.752 173.635 22.288 174.611 21.36C 175.603 20.4 176.291 18.752 176.675 16.416L 176.867 16.416L 177.107 20.544C 175.811 22.688 173.619 23.752 170.531 23.736ZM 190.891 23.184C 191.307 23.184 191.627 23.08 191.851 22.872C 192.219 22.504 192.411 22.112 192.427 21.696L 192.427 15.576L 184.651 15.576L 184.651 21.672C 184.651 22.088 184.803 22.448 185.107 22.752C 185.411 23.04 185.771 23.184 186.187 23.184L 186.475 23.184L 186.499 23.424L 179.203 23.424L 179.203 23.184L 179.515 23.184C 179.931 23.184 180.283 23.04 180.571 22.752C 180.875 22.448 181.035 22.088 181.051 21.672L 181.051 8.352C 181.035 7.936 180.875 7.584 180.571 7.296C 180.283 7.008 179.931 6.864 179.515 6.864L 179.203 6.864L 179.203 6.624L 186.499 6.624L 186.475 6.864L 186.187 6.864C 185.771 6.864 185.411 7.008 185.107 7.296C 184.803 7.584 184.651 7.936 184.651 8.352L 184.651 14.544L 192.427 14.544L 192.427 8.352C 192.411 7.936 192.251 7.584 191.947 7.296C 191.659 7.008 191.307 6.864 190.891 6.864L 190.579 6.864L 190.579 6.624L 197.875 6.624L 197.875 6.864L 197.563 6.864C 197.147 6.864 196.787 7.016 196.483 7.32C 196.179 7.608 196.027 7.96 196.027 8.376L 196.027 21.672C 196.027 22.088 196.179 22.448 196.483 22.752C 196.787 23.04 197.147 23.184 197.563 23.184L 197.875 23.184L 197.875 23.424L 190.579 23.424L 190.579 23.184L 190.891 23.184ZM 190.976 23.184C 191.392 23.184 191.744 23.04 192.032 22.752C 192.336 22.448 192.496 22.088 192.512 21.672L 192.512 8.304C 192.464 7.744 192.2 7.328 191.72 7.056C 191.48 6.928 191.232 6.864 190.976 6.864L 190.664 6.864L 190.664 6.624L 199.856 6.624C 200.352 6.624 200.896 6.576 201.488 6.48C 202.08 6.384 202.496 6.288 202.736 6.192L 202.736 10.392L 202.496 10.392L 202.496 10.104C 202.496 9.384 202.28 8.808 201.848 8.376C 201.432 7.928 200.864 7.688 200.144 7.656L 196.112 7.656L 196.112 14.64L 199.28 14.64C 199.872 14.624 200.36 14.424 200.744 14.04C 201.128 13.64 201.32 13.152 201.32 12.576L 201.32 12.36L 201.56 12.36L 201.56 17.904L 201.32 17.904L 201.32 17.712C 201.32 16.912 201 16.32 200.36 15.936C 200.04 15.76 199.688 15.664 199.304 15.648L 196.112 15.648L 196.112 22.392L 199.256 22.392C 200.424 22.392 201.4 22.056 202.184 21.384C 202.984 20.712 203.576 19.76 203.96 18.528L 204.2 18.528L 203.096 23.424L 190.664 23.424L 190.664 23.184L 190.976 23.184ZM 224.405 6.864C 224.005 6.864 223.661 7.008 223.373 7.296C 223.085 7.568 222.933 7.904 222.917 8.304L 222.917 20.688C 222.917 21.76 222.989 22.664 223.133 23.4L 223.205 23.76L 222.989 23.76L 210.869 12.216L 210.869 21.744C 210.869 22.144 211.013 22.488 211.301 22.776C 211.589 23.048 211.933 23.184 212.333 23.184L 212.789 23.184L 212.789 23.424L 205.517 23.424L 205.517 23.184L 205.949 23.184C 206.365 23.184 206.717 23.048 207.005 22.776C 207.293 22.488 207.437 22.136 207.437 21.72L 207.437 9.264C 207.437 8.208 207.365 7.328 207.221 6.624L 207.173 6.264L 207.389 6.264L 219.509 17.808L 219.509 8.328C 219.493 7.912 219.341 7.568 219.053 7.296C 218.765 7.008 218.421 6.864 218.021 6.864L 217.589 6.864L 217.589 6.624L 224.861 6.624L 224.861 6.864L 224.405 6.864Z"/>
<path id="path1_fill" d="M 10 16.0893L 10 16.6964C 10 16.7786 9.97751 16.8498 9.93253 16.9099C 9.88755 16.97 9.83428 17 9.77273 17L 0.227273 17C 0.16572 17 0.112453 16.97 0.0674716 16.9099C 0.0224905 16.8498 0 16.7786 0 16.6964L 0 16.0893C 0 16.0071 0.0224905 15.9359 0.0674716 15.8758C 0.112453 15.8158 0.16572 15.7857 0.227273 15.7857L 9.77273 15.7857C 9.83428 15.7857 9.88755 15.8158 9.93253 15.8758C 9.97751 15.9359 10 16.0071 10 16.0893ZM 8.18182 6.07143C 8.18182 6.56473 8.12382 7.02009 8.00781 7.4375C 7.89181 7.85491 7.74029 8.21066 7.55327 8.50474C 7.36624 8.79883 7.15909 9.0771 6.93182 9.33956C 6.70455 9.60203 6.47727 9.8471 6.25 10.0748C 6.02273 10.3025 5.81558 10.5301 5.62855 10.7578C 5.44152 10.9855 5.29001 11.2432 5.17401 11.531C 5.058 11.8187 5 12.1239 5 12.4464C 5 13.0536 5.15862 13.7619 5.47585 14.5714L 5.44744 14.5619L 5.45455 14.5714C 5.02841 14.3121 4.64962 14.0497 4.31818 13.784C 3.98674 13.5184 3.65885 13.2022 3.33452 12.8354C 3.01018 12.4686 2.74148 12.0812 2.52841 11.6733C 2.31534 11.2653 2.1437 10.7894 2.01349 10.2455C 1.88329 9.70164 1.81818 9.11979 1.81818 8.5C 1.81818 8.0067 1.87618 7.55134 1.99219 7.13393C 2.10819 6.71652 2.25971 6.36077 2.44673 6.06669C 2.63376 5.7726 2.84091 5.49433 3.06818 5.23186C 3.29545 4.9694 3.52273 4.72433 3.75 4.49665C 3.97727 4.26897 4.18442 4.04129 4.37145 3.81362C 4.55848 3.58594 4.70999 3.32822 4.82599 3.04046C 4.942 2.7527 5 2.44754 5 2.125C 5 1.53051 4.84375 0.822173 4.53125 0L 4.55256 0.00948661L 4.54545 0C 4.97159 0.259301 5.35038 0.521763 5.68182 0.787388C 6.01326 1.05301 6.34115 1.36923 6.66548 1.73605C 6.98982 2.10286 7.25852 2.49023 7.47159 2.89816C 7.68466 3.30608 7.8563 3.78199 7.98651 4.32589C 8.11671 4.86979 8.18182 5.45164 8.18182 6.07143Z"/>
</defs>
</svg>
