<svg width="41" height="17" viewBox="0 0 41 17" version="1.1" xmlns="http://www.w3.org/2000/svg" xmlns:xlink="http://www.w3.org/1999/xlink" xmlns:figma="http://www.figma.com/figma/ns">
<title>cKbeta</title>
<desc>Created using Figma</desc>
<g id="Canvas" transform="translate(1165 198)" figma:type="canvas">
<g id="cKbeta" style="mix-blend-mode:normal;" filter="url(#filter0_b)" figma:type="text">
<use xlink:href="#path0_fill" transform="translate(-1175 -203)" fill="#C4C4C4" style="mix-blend-mode:normal;"/>
<use xlink:href="#path1_fill" transform="translate(-1175 -203)" fill="#F05F40" style="mix-blend-mode:normal;"/>
</g>
</g>
<defs>
<filter id="filter0_b" filterUnits="userSpaceOnUse" x="-1175" y="-208" width="61" height="37" color-interpolation-filters="sRGB">
<feFlood flood-opacity="0" result="BackgroundImageFix"/>
<desc>type="backgroundBlur" size="10"</desc>
<feGaussianBlur in="BackgroundImage" stdDeviation="5"/>
<feComposite in2="SourceAlpha" operator="in" result="effect1_backgroundBlur"/>
<feBlend mode="normal" in="SourceGraphic" in2="effect1_backgroundBlur" result="shape"/>
</filter>
<path id="path0_fill" d="M 39.1187 17.936L 37.5337 17.936L 37.5337 17.886L 37.5987 17.886C 37.6854 17.886 37.7587 17.856 37.8187 17.796C 37.8821 17.736 37.9154 17.6627 37.9187 17.576L 37.9187 14.796C 37.9154 14.7093 37.8821 14.636 37.8187 14.576C 37.7587 14.516 37.6854 14.486 37.5987 14.486L 37.5337 14.486L 37.5337 14.436L 38.9837 14.436C 39.3704 14.436 39.6771 14.506 39.9037 14.646C 40.1337 14.786 40.2504 15.001 40.2537 15.291C 40.2504 15.4377 40.2187 15.566 40.1587 15.676C 40.0487 15.8827 39.8754 16.001 39.6387 16.031C 39.8954 16.0543 40.1071 16.151 40.2737 16.321C 40.4404 16.4877 40.5237 16.701 40.5237 16.961C 40.5237 17.2743 40.3971 17.516 40.1437 17.686C 39.8937 17.8527 39.5521 17.936 39.1187 17.936ZM 39.4537 15.356C 39.4504 14.886 39.2371 14.651 38.8137 14.651L 38.6687 14.651L 38.6687 17.706L 38.8987 17.706C 38.9021 17.706 38.9054 17.706 38.9087 17.706C 39.1387 17.706 39.3221 17.6393 39.4587 17.506C 39.5954 17.3727 39.6637 17.171 39.6637 16.901C 39.6637 16.711 39.6254 16.5543 39.5487 16.431C 39.4054 16.201 39.1687 16.086 38.8387 16.086L 38.8387 16.041C 39.0121 16.041 39.1571 15.986 39.2737 15.876C 39.3904 15.7627 39.4504 15.5893 39.4537 15.356ZM 40.9435 17.886C 41.0301 17.886 41.1035 17.856 41.1635 17.796C 41.2268 17.7327 41.2601 17.6577 41.2635 17.571L 41.2635 14.786C 41.2535 14.6693 41.1985 14.5827 41.0985 14.526C 41.0485 14.4993 40.9968 14.486 40.9435 14.486L 40.8785 14.486L 40.8785 14.436L 42.7935 14.436C 42.8968 14.436 43.0101 14.426 43.1335 14.406C 43.2568 14.386 43.3435 14.366 43.3935 14.346L 43.3935 15.221L 43.3435 15.221L 43.3435 15.161C 43.3435 15.011 43.2985 14.891 43.2085 14.801C 43.1218 14.7077 43.0035 14.6577 42.8535 14.651L 42.0135 14.651L 42.0135 16.106L 42.6735 16.106C 42.7968 16.1027 42.8985 16.061 42.9785 15.981C 43.0585 15.8977 43.0985 15.796 43.0985 15.676L 43.0985 15.631L 43.1485 15.631L 43.1485 16.786L 43.0985 16.786L 43.0985 16.746C 43.0985 16.5793 43.0318 16.456 42.8985 16.376C 42.8318 16.3393 42.7585 16.3193 42.6785 16.316L 42.0135 16.316L 42.0135 17.721L 42.6685 17.721C 42.9118 17.721 43.1151 17.651 43.2785 17.511C 43.4451 17.371 43.5685 17.1727 43.6485 16.916L 43.6985 16.916L 43.4685 17.936L 40.8785 17.936L 40.8785 17.886L 40.9435 17.886ZM 45.8678 14.641L 45.8678 17.576C 45.8711 17.6627 45.9028 17.736 45.9628 17.796C 46.0261 17.856 46.1011 17.886 46.1878 17.886L 46.2478 17.886L 46.2528 17.936L 44.7328 17.936L 44.7328 17.886L 44.7978 17.886C 44.8811 17.886 44.9528 17.856 45.0128 17.796C 45.0761 17.736 45.1111 17.6643 45.1178 17.581L 45.1178 14.641L 44.4428 14.641C 44.2894 14.6443 44.1678 14.6927 44.0778 14.786C 43.9878 14.8793 43.9428 15.001 43.9428 15.151L 43.9428 15.211L 43.8928 15.211L 43.8928 14.341C 43.9394 14.361 44.0228 14.381 44.1428 14.401C 44.2661 14.421 44.3794 14.431 44.4828 14.431L 46.4978 14.431C 46.6611 14.4277 46.7944 14.4143 46.8978 14.391C 47.0011 14.3677 47.0644 14.351 47.0878 14.341L 47.0878 15.211L 47.0378 15.211L 47.0378 15.151C 47.0378 15.001 46.9928 14.8793 46.9028 14.786C 46.8128 14.6927 46.6911 14.6443 46.5378 14.641L 45.8678 14.641ZM 50.5254 17.886L 50.5704 17.886L 50.5704 17.936L 48.9754 17.936L 48.9754 17.886L 49.0204 17.886C 49.0938 17.886 49.1471 17.8643 49.1804 17.821C 49.2171 17.7743 49.2354 17.731 49.2354 17.691C 49.2354 17.651 49.2271 17.611 49.2104 17.571L 48.9654 16.956L 47.7954 16.956L 47.5354 17.571C 47.5188 17.6143 47.5104 17.656 47.5104 17.696C 47.5104 17.7327 47.5271 17.7743 47.5604 17.821C 47.5971 17.8643 47.6538 17.886 47.7304 17.886L 47.7704 17.886L 47.7704 17.936L 46.7004 17.936L 46.7004 17.886L 46.7454 17.886C 46.8221 17.886 46.8988 17.8627 46.9754 17.816C 47.0521 17.7693 47.1154 17.6993 47.1654 17.606L 48.3204 14.991C 48.4771 14.661 48.5604 14.4427 48.5704 14.336L 48.6154 14.336L 50.1004 17.596C 50.1504 17.6927 50.2138 17.766 50.2904 17.816C 50.3671 17.8627 50.4454 17.886 50.5254 17.886ZM 47.8804 16.746L 48.8804 16.746L 48.3954 15.516L 47.8804 16.746Z"/>
<path id="path1_fill" d="M 17.8294 18.17C 15.5134 18.17 13.6954 17.588 12.3754 16.424C 11.0554 15.26 10.3954 13.664 10.3954 11.636C 10.3954 9.608 11.0494 8.012 12.3574 6.848C 13.6654 5.672 15.4594 5.084 17.7394 5.084C 19.4794 5.084 20.9734 5.408 22.2214 6.056L 22.2574 9.152L 22.1134 9.152C 21.5014 6.944 20.1034 5.84 17.9194 5.84C 16.5034 5.84 15.3814 6.356 14.5534 7.388C 13.7374 8.408 13.3294 9.806 13.3294 11.582C 13.3294 13.358 13.7194 14.768 14.4994 15.812C 15.2914 16.856 16.3594 17.396 17.7034 17.432C 19.0954 17.432 20.1574 17.084 20.8894 16.388C 21.6334 15.668 22.1494 14.432 22.4374 12.68L 22.5814 12.68L 22.7614 15.776C 21.7894 17.384 20.1454 18.182 17.8294 18.17ZM 24.6204 17.756C 24.9324 17.756 25.1964 17.648 25.4124 17.432C 25.6404 17.204 25.7604 16.934 25.7724 16.622L 25.7724 6.632C 25.7604 6.2 25.5624 5.876 25.1784 5.66C 25.0104 5.564 24.8244 5.516 24.6204 5.516L 24.3864 5.516L 24.3864 5.336L 29.8584 5.336L 29.8404 5.516L 29.6244 5.516C 29.3124 5.516 29.0424 5.624 28.8144 5.84C 28.5864 6.056 28.4724 6.32 28.4724 6.632L 28.4724 16.622C 28.4724 16.934 28.5864 17.204 28.8144 17.432C 29.0424 17.648 29.3124 17.756 29.6244 17.756L 29.8404 17.756L 29.8584 17.936L 24.3864 17.936L 24.3864 17.756L 24.6204 17.756ZM 42.4944 20.996C 41.6184 21.452 40.8204 21.68 40.1004 21.68C 39.3804 21.68 38.7324 21.578 38.1564 21.374C 36.7284 20.858 35.2704 19.676 33.7824 17.828L 29.0484 11.996L 33.3144 6.344C 33.4104 6.224 33.4584 6.116 33.4584 6.02C 33.4584 5.924 33.4404 5.84 33.4044 5.768C 33.3084 5.588 33.1404 5.498 32.9004 5.498L 32.7204 5.498L 32.7204 5.336L 36.8424 5.336L 36.8424 5.498L 36.7704 5.498C 35.9664 5.498 35.3124 5.786 34.8084 6.362L 31.2984 10.538L 36.1944 16.622C 37.2864 18.062 38.3124 19.106 39.2724 19.754C 40.2324 20.402 41.3004 20.756 42.4764 20.816L 42.4944 20.996Z"/>
</defs>
</svg>
