<svg width="542" height="112" viewBox="0 0 542 112" version="1.1" xmlns="http://www.w3.org/2000/svg" xmlns:xlink="http://www.w3.org/1999/xlink" xmlns:figma="http://www.figma.com/figma/ns">
<title>saltdK rry</title>
<desc>Created using Figma</desc>
<g id="Canvas" transform="matrix(2 0 0 2 1848 898)" figma:type="canvas">
<g id="g" style="mix-blend-mode:normal;" figma:type="frame">
<g id="g" style="mix-blend-mode:normal;" figma:type="frame">
<g id="path" style="mix-blend-mode:normal;" figma:type="vector">
<use xlink:href="#path0_fill" transform="translate(-767 -422.189)" fill="#F05F40" style="mix-blend-mode:normal;"/>
</g>
<g id="rect" style="mix-blend-mode:normal;" figma:type="vector">
<use xlink:href="#path1_fill" transform="translate(-767 -428.161)" fill="#F05F40" style="mix-blend-mode:normal;"/>
</g>
<g id="path" style="mix-blend-mode:normal;" figma:type="vector">
<use xlink:href="#path2_fill" transform="translate(-757.843 -440.124)" fill="#F05F40" style="mix-blend-mode:normal;"/>
</g>
<g id="path" style="mix-blend-mode:normal;" figma:type="vector">
<use xlink:href="#path3_fill" transform="translate(-746.99 -444.158)" fill="#F05F40" style="mix-blend-mode:normal;"/>
</g>
</g>
</g>
<g id="saltdK rry" style="mix-blend-mode:normal;" figma:type="text">
<use xlink:href="#path4_fill" transform="translate(-926.72 -465.78)" fill="#FFFFFF" style="mix-blend-mode:normal;"/>
</g>
</g>
<defs>
<path id="path0_fill" fill-rule="evenodd" d="M 0 7.22463e-07L 0 0.0274565L 0 0.784012C 0 9.0711 6.71627 15.7867 15.0012 15.7867L 24.9988 15.7867C 33.2824 15.7867 40 9.07018 40 0.784876L 40 7.22463e-07L 3.7397e-16 7.22463e-07L 0 7.22463e-07Z"/>
<path id="path1_fill" d="M 40 0L 0 0L 0 3.98104L 40 3.98104L 40 0Z"/>
<path id="path2_fill" fill-rule="evenodd" d="M 9.9321 9.9448C 10.2425 7.34561 9.3268 4.57307 7.22649 2.54473C 5.21309 0.600326 2.55425 -0.232186 0.0590075 0.0553938C -0.251349 2.65458 0.664308 5.42712 2.76462 7.45546C 4.77802 9.39986 7.43686 10.2324 9.9321 9.9448Z"/>
<path id="path3_fill" fill-rule="evenodd" d="M 14.2095 0.0102047C 15.0894 3.30184 13.0816 7.78692 9.02154 10.9591C 6.16123 13.194 2.91512 14.2828 0.204162 14.1541C -0.675793 10.8625 1.33201 6.37742 5.39208 3.20521C 8.25239 0.970386 11.4985 -0.118434 14.2095 0.0102047Z"/>
<path id="path4_fill" d="M 23.7134 50.7568C 23.7134 53.4961 22.6929 55.6087 20.6519 57.0947C 18.6108 58.5807 15.7463 59.3237 12.0581 59.3237C 8.15511 59.3237 5.11149 58.7061 2.92725 57.4707L 2.92725 53.335C 4.34163 54.0511 5.85449 54.6151 7.46582 55.0269C 9.09505 55.4386 10.6616 55.6445 12.1655 55.6445C 14.493 55.6445 16.2834 55.2775 17.5366 54.5435C 18.7899 53.7915 19.4165 52.6546 19.4165 51.1328C 19.4165 49.987 18.9152 49.0112 17.9126 48.2056C 16.9279 47.382 14.9943 46.4152 12.1118 45.3052C 9.37256 44.2847 7.42106 43.3984 6.25732 42.6465C 5.11149 41.8766 4.25212 41.0083 3.6792 40.0415C 3.12419 39.0747 2.84668 37.9199 2.84668 36.5771C 2.84668 34.1781 3.82243 32.2892 5.77393 30.9106C 7.72542 29.5142 10.402 28.8159 13.8037 28.8159C 16.9727 28.8159 20.07 29.4604 23.0957 30.7495L 21.5112 34.375C 18.5571 33.1576 15.8805 32.5488 13.4814 32.5488C 11.3688 32.5488 9.77539 32.88 8.70117 33.5425C 7.62695 34.2049 7.08984 35.118 7.08984 36.2817C 7.08984 37.0695 7.28678 37.7409 7.68066 38.2959C 8.09245 38.8509 8.74593 39.3791 9.64111 39.8804C 10.5363 40.3817 12.255 41.1068 14.7974 42.0557C 18.2886 43.3268 20.6429 44.6069 21.8604 45.896C 23.0957 47.1851 23.7134 48.8053 23.7134 50.7568ZM 49.0918 58.7866L 48.2056 54.5972L 47.9907 54.5972C 46.5226 56.4412 45.0545 57.6945 43.5864 58.3569C 42.1362 59.0015 40.319 59.3237 38.1348 59.3237C 35.2165 59.3237 32.9248 58.5718 31.2598 57.0679C 29.6126 55.564 28.7891 53.4245 28.7891 50.6494C 28.7891 44.7054 33.5425 41.5902 43.0493 41.3037L 48.0444 41.1426L 48.0444 39.3164C 48.0444 37.0068 47.5431 35.306 46.5405 34.2139C 45.5558 33.1038 43.9714 32.5488 41.7871 32.5488C 39.3343 32.5488 36.5592 33.3008 33.4619 34.8047L 32.0923 31.394C 33.5425 30.6063 35.127 29.9886 36.8457 29.541C 38.5824 29.0934 40.319 28.8696 42.0557 28.8696C 45.5648 28.8696 48.1608 29.6484 49.8438 31.2061C 51.5446 32.7637 52.395 35.2612 52.395 38.6987L 52.395 58.7866L 49.0918 58.7866ZM 39.021 55.6445C 41.7961 55.6445 43.9714 54.8836 45.5469 53.3618C 47.1403 51.84 47.937 49.7095 47.937 46.9702L 47.937 44.3115L 43.479 44.4995C 39.9341 44.6248 37.3739 45.1799 35.7983 46.1646C 34.2407 47.1313 33.4619 48.6442 33.4619 50.7031C 33.4619 52.3145 33.9453 53.5409 34.9121 54.3823C 35.8968 55.2238 37.2664 55.6445 39.021 55.6445ZM 66.0645 58.7866L 61.6064 58.7866L 61.6064 16.9995L 66.0645 16.9995L 66.0645 58.7866ZM 85.0244 55.6445C 85.8122 55.6445 86.5731 55.5908 87.3071 55.4834C 88.0412 55.3581 88.623 55.2327 89.0527 55.1074L 89.0527 58.5181C 88.5693 58.7508 87.8532 58.9388 86.9043 59.082C 85.9733 59.2432 85.1318 59.3237 84.3799 59.3237C 78.6865 59.3237 75.8398 56.3249 75.8398 50.3271L 75.8398 32.8174L 71.6235 32.8174L 71.6235 30.6689L 75.8398 28.8159L 77.7197 22.5317L 80.2979 22.5317L 80.2979 29.353L 88.8379 29.353L 88.8379 32.8174L 80.2979 32.8174L 80.2979 50.1392C 80.2979 51.9116 80.7186 53.2723 81.5601 54.2212C 82.4015 55.1701 83.5563 55.6445 85.0244 55.6445ZM 114.995 54.8389L 114.753 54.8389C 112.694 57.8288 109.615 59.3237 105.515 59.3237C 101.666 59.3237 98.667 58.0078 96.5186 55.376C 94.388 52.7441 93.3228 49.0023 93.3228 44.1504C 93.3228 39.2985 94.397 35.5298 96.5454 32.8442C 98.6938 30.1587 101.684 28.8159 105.515 28.8159C 109.508 28.8159 112.569 30.2661 114.7 33.1665L 115.049 33.1665L 114.861 31.0449L 114.753 28.9771L 114.753 16.9995L 119.211 16.9995L 119.211 58.7866L 115.586 58.7866L 114.995 54.8389ZM 106.079 55.5908C 109.123 55.5908 111.325 54.7673 112.686 53.1201C 114.064 51.4551 114.753 48.7785 114.753 45.0903L 114.753 44.1504C 114.753 39.9788 114.055 37.0068 112.659 35.2344C 111.28 33.444 109.069 32.5488 106.025 32.5488C 103.411 32.5488 101.406 33.5693 100.01 35.6104C 98.6312 37.6335 97.9419 40.498 97.9419 44.2041C 97.9419 47.9639 98.6312 50.8016 100.01 52.7173C 101.388 54.633 103.411 55.5908 106.079 55.5908ZM 157.722 58.7866L 152.351 58.7866L 138.037 39.7461L 133.928 43.3984L 133.928 58.7866L 129.363 58.7866L 129.363 19.5239L 133.928 19.5239L 133.928 38.9941L 151.733 19.5239L 157.131 19.5239L 141.34 36.5771L 157.722 58.7866ZM 218.765 28.8159C 220.072 28.8159 221.244 28.9233 222.283 29.1382L 221.665 33.2739C 220.448 33.0054 219.373 32.8711 218.442 32.8711C 216.061 32.8711 214.02 33.8379 212.319 35.7715C 210.636 37.7051 209.795 40.1131 209.795 42.9956L 209.795 58.7866L 205.337 58.7866L 205.337 29.353L 209.016 29.353L 209.526 34.8047L 209.741 34.8047C 210.833 32.889 212.149 31.4119 213.689 30.3735C 215.229 29.3351 216.921 28.8159 218.765 28.8159ZM 241.216 28.8159C 242.523 28.8159 243.695 28.9233 244.734 29.1382L 244.116 33.2739C 242.899 33.0054 241.825 32.8711 240.894 32.8711C 238.512 32.8711 236.471 33.8379 234.771 35.7715C 233.088 37.7051 232.246 40.1131 232.246 42.9956L 232.246 58.7866L 227.788 58.7866L 227.788 29.353L 231.467 29.353L 231.978 34.8047L 232.192 34.8047C 233.285 32.889 234.6 31.4119 236.14 30.3735C 237.68 29.3351 239.372 28.8159 241.216 28.8159ZM 245.566 29.353L 250.347 29.353L 256.792 46.1377C 258.206 49.9691 259.084 52.7352 259.424 54.436L 259.639 54.436C 259.871 53.5229 260.355 51.9653 261.089 49.7632C 261.841 47.5431 264.276 40.7397 268.394 29.353L 273.174 29.353L 260.525 62.8687C 259.272 66.1808 257.804 68.5262 256.121 69.9048C 254.456 71.3013 252.406 71.9995 249.971 71.9995C 248.61 71.9995 247.267 71.8473 245.942 71.543L 245.942 67.9712C 246.927 68.186 248.028 68.2935 249.246 68.2935C 252.307 68.2935 254.491 66.5747 255.798 63.1372L 257.437 58.9478L 245.566 29.353Z"/>
</defs>
</svg>
