<svg width="550" height="112" viewBox="0 0 550 112" version="1.1" xmlns="http://www.w3.org/2000/svg" xmlns:xlink="http://www.w3.org/1999/xlink" xmlns:figma="http://www.figma.com/figma/ns">
<title>SaltdK rry</title>
<desc>Created using Figma</desc>
<g id="Canvas" transform="matrix(2 0 0 2 1828 662)" figma:type="canvas">
<g id="g" style="mix-blend-mode:normal;" figma:type="frame">
<g id="g" style="mix-blend-mode:normal;" figma:type="frame">
<g id="path" style="mix-blend-mode:normal;" figma:type="vector">
<use xlink:href="#path0_fill" transform="translate(-754 -304.189)" fill="#F05F40" style="mix-blend-mode:normal;"/>
</g>
<g id="rect" style="mix-blend-mode:normal;" figma:type="vector">
<use xlink:href="#path1_fill" transform="translate(-754 -310.161)" fill="#F05F40" style="mix-blend-mode:normal;"/>
</g>
<g id="path" style="mix-blend-mode:normal;" figma:type="vector">
<use xlink:href="#path2_fill" transform="translate(-744.843 -322.124)" fill="#F05F40" style="mix-blend-mode:normal;"/>
</g>
<g id="path" style="mix-blend-mode:normal;" figma:type="vector">
<use xlink:href="#path3_fill" transform="translate(-733.99 -326.158)" fill="#F05F40" style="mix-blend-mode:normal;"/>
</g>
</g>
</g>
<g id="SaltdK rry" style="mix-blend-mode:normal;" figma:type="text">
<use xlink:href="#path4_fill" transform="translate(-916.72 -347.78)" fill="#FFFFFF" style="mix-blend-mode:normal;"/>
</g>
</g>
<defs>
<path id="path0_fill" fill-rule="evenodd" d="M 0 7.22463e-07L 0 0.0274565L 0 0.784012C 0 9.07111 6.71627 15.7867 15.0012 15.7867L 24.9988 15.7867C 33.2824 15.7867 40 9.07018 40 0.784876L 40 7.22463e-07L 3.7397e-16 7.22463e-07L 0 7.22463e-07Z"/>
<path id="path1_fill" d="M 40 0L 0 0L 0 3.98104L 40 3.98104L 40 0Z"/>
<path id="path2_fill" fill-rule="evenodd" d="M 9.9321 9.9448C 10.2425 7.34561 9.3268 4.57307 7.22649 2.54473C 5.21309 0.600326 2.55425 -0.232186 0.0590075 0.0553938C -0.251349 2.65458 0.664308 5.42712 2.76462 7.45546C 4.77802 9.39986 7.43686 10.2324 9.9321 9.9448Z"/>
<path id="path3_fill" fill-rule="evenodd" d="M 14.2095 0.0102047C 15.0894 3.30184 13.0816 7.78692 9.02154 10.9591C 6.16123 13.194 2.91512 14.2828 0.204162 14.1541C -0.675793 10.8625 1.33201 6.37742 5.39208 3.20521C 8.25239 0.970386 11.4985 -0.118434 14.2095 0.0102047Z"/>
<path id="path4_fill" d="M 27.5537 48.5532C 27.5537 52.0086 26.3005 54.7031 23.7939 56.6367C 21.2874 58.5703 17.8857 59.5371 13.5889 59.5371C 8.93392 59.5371 5.35319 58.9373 2.84668 57.7378L 2.84668 53.3335C 4.45801 54.0138 6.21257 54.5509 8.11035 54.9448C 10.0081 55.3387 11.888 55.5356 13.75 55.5356C 16.7936 55.5356 19.0853 54.9627 20.625 53.8169C 22.1647 52.6532 22.9346 51.0418 22.9346 48.9829C 22.9346 47.6222 22.6571 46.5122 22.1021 45.6528C 21.5649 44.7756 20.6519 43.9699 19.3628 43.2358C 18.0916 42.5018 16.1491 41.6693 13.5352 40.7383C 9.88281 39.4313 7.26888 37.8826 5.69336 36.0923C 4.13574 34.3019 3.35693 31.9655 3.35693 29.083C 3.35693 26.0573 4.49382 23.6493 6.76758 21.8589C 9.04134 20.0685 12.0492 19.1733 15.791 19.1733C 19.694 19.1733 23.2837 19.8895 26.5601 21.3218L 25.1367 25.2964C 21.8962 23.9357 18.7451 23.2554 15.6836 23.2554C 13.2666 23.2554 11.3778 23.7746 10.0171 24.813C 8.65641 25.8514 7.97607 27.2926 7.97607 29.1367C 7.97607 30.4974 8.22673 31.6164 8.72803 32.4937C 9.22933 33.353 10.0708 34.1497 11.2524 34.8838C 12.452 35.5999 14.2782 36.3966 16.731 37.2739C 20.8488 38.742 23.6776 40.3175 25.2173 42.0005C 26.7749 43.6834 27.5537 45.8677 27.5537 48.5532ZM 53.0127 59L 52.1265 54.8105L 51.9116 54.8105C 50.4435 56.6546 48.9754 57.9079 47.5073 58.5703C 46.0571 59.2148 44.2399 59.5371 42.0557 59.5371C 39.1374 59.5371 36.8457 58.7852 35.1807 57.2812C 33.5335 55.7773 32.71 53.6379 32.71 50.8628C 32.71 44.9188 37.4634 41.8035 46.9702 41.5171L 51.9653 41.356L 51.9653 39.5298C 51.9653 37.2202 51.464 35.5194 50.4614 34.4272C 49.4767 33.3172 47.8923 32.7622 45.708 32.7622C 43.2552 32.7622 40.4801 33.5142 37.3828 35.0181L 36.0132 31.6074C 37.4634 30.8197 39.0479 30.202 40.7666 29.7544C 42.5033 29.3068 44.2399 29.083 45.9766 29.083C 49.4857 29.083 52.0817 29.8618 53.7646 31.4194C 55.4655 32.9771 56.3159 35.4746 56.3159 38.9121L 56.3159 59L 53.0127 59ZM 42.9419 55.8579C 45.717 55.8579 47.8923 55.097 49.4678 53.5752C 51.0612 52.0534 51.8579 49.9229 51.8579 47.1836L 51.8579 44.5249L 47.3999 44.7129C 43.855 44.8382 41.2948 45.3932 39.7192 46.3779C 38.1616 47.3447 37.3828 48.8576 37.3828 50.9165C 37.3828 52.5278 37.8662 53.7542 38.833 54.5957C 39.8177 55.4372 41.1873 55.8579 42.9419 55.8579ZM 69.9854 59L 65.5273 59L 65.5273 17.2129L 69.9854 17.2129L 69.9854 59ZM 88.9453 55.8579C 89.7331 55.8579 90.494 55.8042 91.228 55.6968C 91.9621 55.5715 92.5439 55.4461 92.9736 55.3208L 92.9736 58.7314C 92.4902 58.9642 91.7741 59.1522 90.8252 59.2954C 89.8942 59.4565 89.0527 59.5371 88.3008 59.5371C 82.6074 59.5371 79.7607 56.5382 79.7607 50.5405L 79.7607 33.0308L 75.5444 33.0308L 75.5444 30.8823L 79.7607 29.0293L 81.6406 22.7451L 84.2188 22.7451L 84.2188 29.5664L 92.7588 29.5664L 92.7588 33.0308L 84.2188 33.0308L 84.2188 50.3525C 84.2188 52.125 84.6395 53.4857 85.481 54.4346C 86.3224 55.3835 87.4772 55.8579 88.9453 55.8579ZM 118.916 55.0522L 118.674 55.0522C 116.615 58.0422 113.536 59.5371 109.436 59.5371C 105.587 59.5371 102.588 58.2212 100.439 55.5894C 98.3089 52.9575 97.2437 49.2157 97.2437 44.3638C 97.2437 39.5119 98.3179 35.7432 100.466 33.0576C 102.615 30.3721 105.605 29.0293 109.436 29.0293C 113.429 29.0293 116.49 30.4795 118.621 33.3799L 118.97 33.3799L 118.782 31.2583L 118.674 29.1904L 118.674 17.2129L 123.132 17.2129L 123.132 59L 119.507 59L 118.916 55.0522ZM 110 55.8042C 113.044 55.8042 115.246 54.9806 116.606 53.3335C 117.985 51.6685 118.674 48.9919 118.674 45.3037L 118.674 44.3638C 118.674 40.1922 117.976 37.2202 116.58 35.4478C 115.201 33.6574 112.99 32.7622 109.946 32.7622C 107.332 32.7622 105.327 33.7827 103.931 35.8237C 102.552 37.8468 101.863 40.7114 101.863 44.4175C 101.863 48.1772 102.552 51.015 103.931 52.9307C 105.309 54.8464 107.332 55.8042 110 55.8042ZM 161.643 59L 156.272 59L 141.958 39.9595L 137.849 43.6118L 137.849 59L 133.284 59L 133.284 19.7373L 137.849 19.7373L 137.849 39.2075L 155.654 19.7373L 161.052 19.7373L 145.261 36.7905L 161.643 59ZM 222.686 29.0293C 223.993 29.0293 225.165 29.1367 226.204 29.3516L 225.586 33.4873C 224.368 33.2188 223.294 33.0845 222.363 33.0845C 219.982 33.0845 217.941 34.0513 216.24 35.9849C 214.557 37.9185 213.716 40.3265 213.716 43.209L 213.716 59L 209.258 59L 209.258 29.5664L 212.937 29.5664L 213.447 35.0181L 213.662 35.0181C 214.754 33.1024 216.07 31.6253 217.61 30.5869C 219.15 29.5485 220.841 29.0293 222.686 29.0293ZM 245.137 29.0293C 246.444 29.0293 247.616 29.1367 248.655 29.3516L 248.037 33.4873C 246.82 33.2188 245.745 33.0845 244.814 33.0845C 242.433 33.0845 240.392 34.0513 238.691 35.9849C 237.008 37.9185 236.167 40.3265 236.167 43.209L 236.167 59L 231.709 59L 231.709 29.5664L 235.388 29.5664L 235.898 35.0181L 236.113 35.0181C 237.205 33.1024 238.521 31.6253 240.061 30.5869C 241.601 29.5485 243.293 29.0293 245.137 29.0293ZM 249.487 29.5664L 254.268 29.5664L 260.713 46.3511C 262.127 50.1825 263.005 52.9486 263.345 54.6494L 263.56 54.6494C 263.792 53.7363 264.276 52.1787 265.01 49.9766C 265.762 47.7565 268.197 40.9531 272.314 29.5664L 277.095 29.5664L 264.446 63.082C 263.193 66.3942 261.724 68.7396 260.042 70.1182C 258.376 71.5146 256.326 72.2129 253.892 72.2129C 252.531 72.2129 251.188 72.0607 249.863 71.7563L 249.863 68.1846C 250.848 68.3994 251.949 68.5068 253.167 68.5068C 256.228 68.5068 258.412 66.7881 259.719 63.3506L 261.357 59.1611L 249.487 29.5664Z"/>
</defs>
</svg>
