<svg width="492" height="96" viewBox="0 0 492 96" version="1.1" xmlns="http://www.w3.org/2000/svg" xmlns:xlink="http://www.w3.org/1999/xlink" xmlns:figma="http://www.figma.com/figma/ns">
<title>saltdK rry</title>
<desc>Created using Figma</desc>
<g id="Canvas" transform="matrix(2 0 0 2 1848 906)" figma:type="canvas">
<g id="g" style="mix-blend-mode:normal;" figma:type="frame">
<g id="g" style="mix-blend-mode:normal;" figma:type="frame">
<g id="path" style="mix-blend-mode:normal;" figma:type="vector">
<use xlink:href="#path0_fill" transform="translate(-778 -427.681)" fill="#F05F40" style="mix-blend-mode:normal;"/>
</g>
<g id="rect" style="mix-blend-mode:normal;" figma:type="vector">
<use xlink:href="#path1_fill" transform="translate(-778 -432.16)" fill="#F05F40" style="mix-blend-mode:normal;"/>
</g>
<g id="path" style="mix-blend-mode:normal;" figma:type="vector">
<use xlink:href="#path2_fill" transform="translate(-771.132 -441.132)" fill="#F05F40" style="mix-blend-mode:normal;"/>
</g>
<g id="path" style="mix-blend-mode:normal;" figma:type="vector">
<use xlink:href="#path3_fill" transform="translate(-762.992 -444.158)" fill="#F05F40" style="mix-blend-mode:normal;"/>
</g>
</g>
</g>
<g id="saltdK rry" style="mix-blend-mode:normal;" figma:type="text">
<use xlink:href="#path4_fill" transform="translate(-926.72 -465.78)" style="mix-blend-mode:normal;"/>
</g>
</g>
<defs>
<path id="path0_fill" fill-rule="evenodd" d="M 0 5.41847e-07L 0 0.0205924L 0 0.588009C 0 6.80333 5.0372 11.8401 11.2509 11.8401L 18.7491 11.8401C 24.9618 11.8401 30 6.80263 30 0.588657L 30 5.41847e-07L 2.80477e-16 5.41847e-07L 0 5.41847e-07Z"/>
<path id="path1_fill" d="M 30 0L 0 0L 0 2.98578L 30 2.98578L 30 0Z"/>
<path id="path2_fill" fill-rule="evenodd" d="M 7.44908 7.4586C 7.68184 5.50921 6.9951 3.42981 5.41986 1.90855C 3.90982 0.450245 1.91569 -0.174139 0.0442556 0.0415454C -0.188512 1.99094 0.498231 4.07034 2.07347 5.5916C 3.58352 7.0499 5.57764 7.67428 7.44908 7.4586Z"/>
<path id="path3_fill" fill-rule="evenodd" d="M 10.6571 0.00765351C 11.3171 2.47638 9.81121 5.84019 6.76615 8.21936C 4.62092 9.89547 2.18634 10.7121 0.153121 10.6156C -0.506845 8.14688 0.999007 4.78307 4.04406 2.4039C 6.18929 0.727789 8.62387 -0.0888254 10.6571 0.00765351Z"/>
<path id="path4_fill" d="M 21.4922 32.9062L 18.0234 32.9062L 17.2734 29.8594C 16.7109 29.3281 16 28.9062 15.1406 28.5938C 14.2969 28.2656 13.3359 28.1016 12.2578 28.1016C 10.6172 28.1016 9.39844 28.4609 8.60156 29.1797C 7.80469 29.8984 7.40625 30.7656 7.40625 31.7812C 7.40625 32.7813 7.75781 33.5703 8.46094 34.1484C 9.16406 34.7266 10.5938 35.2422 12.75 35.6953C 15.9531 36.3828 18.3359 37.3203 19.8984 38.5078C 21.4609 39.6797 22.2422 41.2578 22.2422 43.2422C 22.2422 45.4922 21.3281 47.3125 19.5 48.7031C 17.6875 50.0937 15.3125 50.7891 12.375 50.7891C 10.4531 50.7891 8.72656 50.5703 7.19531 50.1328C 5.66406 49.6797 4.29687 49.0312 3.09375 48.1875L 3.07031 42.3984L 6.53906 42.3984L 7.40625 45.7969C 7.9375 46.2813 8.65625 46.6328 9.5625 46.8516C 10.4844 47.0703 11.4219 47.1797 12.375 47.1797C 14.0156 47.1797 15.2969 46.8516 16.2188 46.1953C 17.1562 45.5234 17.625 44.6484 17.625 43.5703C 17.625 42.5547 17.2344 41.7188 16.4531 41.0625C 15.6875 40.4062 14.2266 39.8359 12.0703 39.3516C 8.99219 38.6797 6.67187 37.7656 5.10938 36.6094C 3.54687 35.4531 2.76562 33.8906 2.76562 31.9219C 2.76562 29.8594 3.64062 28.1016 5.39062 26.6484C 7.15625 25.1953 9.44531 24.4688 12.2578 24.4688C 14.1797 24.4688 15.9063 24.7187 17.4375 25.2188C 18.9687 25.7188 20.2422 26.4141 21.2578 27.3047L 21.4922 32.9062ZM 43.1016 50.2969C 42.9609 49.6094 42.8516 48.9922 42.7734 48.4453C 42.6953 47.8984 42.6406 47.3516 42.6094 46.8047C 41.7188 47.9453 40.6016 48.8984 39.2578 49.6641C 37.9297 50.4141 36.5078 50.7891 34.9922 50.7891C 32.3516 50.7891 30.3438 50.1484 28.9688 48.8672C 27.5937 47.5703 26.9062 45.75 26.9062 43.4062C 26.9062 41 27.875 39.1484 29.8125 37.8516C 31.7656 36.5391 34.4375 35.8828 37.8281 35.8828L 42.5859 35.8828L 42.5859 32.9297C 42.5859 31.4453 42.1172 30.2734 41.1797 29.4141C 40.2422 28.5391 38.9375 28.1016 37.2656 28.1016C 36.1094 28.1016 35.0859 28.25 34.1953 28.5469C 33.3203 28.8438 32.6094 29.25 32.0625 29.7656L 31.5703 32.4375L 28.0078 32.4375L 28.0078 27.5156C 29.1641 26.5938 30.5625 25.8594 32.2031 25.3125C 33.8438 24.75 35.625 24.4688 37.5469 24.4688C 40.4219 24.4688 42.75 25.2031 44.5312 26.6719C 46.3125 28.1406 47.2031 30.2422 47.2031 32.9766L 47.2031 45.1875C 47.2031 45.5156 47.2031 45.8359 47.2031 46.1484C 47.2188 46.4609 47.2422 46.7734 47.2734 47.0859L 49.1484 47.3438L 49.1484 50.2969L 43.1016 50.2969ZM 35.6719 46.9219C 37.2031 46.9219 38.6016 46.5547 39.8672 45.8203C 41.1328 45.0859 42.0391 44.2031 42.5859 43.1719L 42.5859 39L 37.6641 39C 35.7734 39 34.2734 39.4375 33.1641 40.3125C 32.0703 41.1875 31.5234 42.25 31.5234 43.5C 31.5234 44.6094 31.8672 45.4609 32.5547 46.0547C 33.2422 46.6328 34.2812 46.9219 35.6719 46.9219ZM 52.3594 16.7109L 52.3594 13.7344L 60.7969 13.7344L 60.7969 46.6875L 64.6172 47.3438L 64.6172 50.2969L 52.3594 50.2969L 52.3594 47.3438L 56.1797 46.6875L 56.1797 17.3672L 52.3594 16.7109ZM 76.1953 18.8203L 76.1953 24.9375L 81 24.9375L 81 28.3594L 76.1953 28.3594L 76.1953 43.7578C 76.1953 44.9453 76.4375 45.7812 76.9219 46.2656C 77.4219 46.75 78.0781 46.9922 78.8906 46.9922C 79.2969 46.9922 79.75 46.9609 80.25 46.8984C 80.7656 46.8203 81.1953 46.7422 81.5391 46.6641L 82.1719 49.8281C 81.7344 50.1094 81.0938 50.3359 80.25 50.5078C 79.4062 50.6953 78.5625 50.7891 77.7188 50.7891C 75.8438 50.7891 74.3516 50.2266 73.2422 49.1016C 72.1328 47.9609 71.5781 46.1797 71.5781 43.7578L 71.5781 28.3594L 67.5703 28.3594L 67.5703 24.9375L 71.5781 24.9375L 71.5781 18.8203L 76.1953 18.8203ZM 102.797 47.2734C 101.969 48.4297 100.953 49.3047 99.75 49.8984C 98.5625 50.4922 97.1797 50.7891 95.6016 50.7891C 92.5078 50.7891 90.0859 49.6719 88.3359 47.4375C 86.6016 45.1875 85.7344 42.2344 85.7344 38.5781L 85.7344 38.0859C 85.7344 34.0078 86.6016 30.7188 88.3359 28.2188C 90.0859 25.7188 92.5234 24.4688 95.6484 24.4688C 97.1484 24.4688 98.4687 24.75 99.6094 25.3125C 100.766 25.8594 101.75 26.6562 102.562 27.7031L 102.562 17.3672L 98.7422 16.7109L 98.7422 13.7344L 102.562 13.7344L 107.18 13.7344L 107.18 46.6875L 111 47.3438L 111 50.2969L 103.172 50.2969L 102.797 47.2734ZM 90.3516 38.5781C 90.3516 41.125 90.875 43.1719 91.9219 44.7188C 92.9687 46.2656 94.5859 47.0391 96.7734 47.0391C 98.1484 47.0391 99.3047 46.7266 100.242 46.1016C 101.18 45.4766 101.953 44.5938 102.562 43.4531L 102.562 31.6875C 101.969 30.625 101.195 29.7813 100.242 29.1562C 99.2891 28.5312 98.1484 28.2188 96.8203 28.2188C 94.6172 28.2188 92.9844 29.1328 91.9219 30.9609C 90.875 32.7891 90.3516 35.1641 90.3516 38.0859L 90.3516 38.5781ZM 114.117 47.3438L 117.938 46.6875L 117.938 19.8047L 114.117 19.1484L 114.117 16.1719L 126.375 16.1719L 126.375 19.1484L 122.555 19.8047L 122.555 31.2656L 126.094 31.2656L 135.633 19.4766L 133.078 19.1484L 133.078 16.1719L 143.906 16.1719L 143.906 19.1484L 140.695 19.7344L 130.266 32.6719L 141.656 46.7578L 144.867 47.3438L 144.867 50.2969L 133.664 50.2969L 133.664 47.3438L 136.266 47.0156L 126.539 34.8984L 122.555 34.8984L 122.555 46.6875L 126.375 47.3438L 126.375 50.2969L 114.117 50.2969L 114.117 47.3438ZM 184.43 27.9141L 184.43 24.9375L 192.375 24.9375L 192.82 28.6172C 193.539 27.3203 194.422 26.3047 195.469 25.5703C 196.531 24.8359 197.742 24.4688 199.102 24.4688C 199.461 24.4688 199.828 24.5 200.203 24.5625C 200.594 24.6094 200.891 24.6641 201.094 24.7266L 200.484 29.0156L 197.859 28.875C 196.641 28.875 195.617 29.1641 194.789 29.7422C 193.961 30.3047 193.32 31.1016 192.867 32.1328L 192.867 46.6875L 196.688 47.3438L 196.688 50.2969L 184.43 50.2969L 184.43 47.3438L 188.25 46.6875L 188.25 28.5703L 184.43 27.9141ZM 204.305 27.9141L 204.305 24.9375L 212.25 24.9375L 212.695 28.6172C 213.414 27.3203 214.297 26.3047 215.344 25.5703C 216.406 24.8359 217.617 24.4688 218.977 24.4688C 219.336 24.4688 219.703 24.5 220.078 24.5625C 220.469 24.6094 220.766 24.6641 220.969 24.7266L 220.359 29.0156L 217.734 28.875C 216.516 28.875 215.492 29.1641 214.664 29.7422C 213.836 30.3047 213.195 31.1016 212.742 32.1328L 212.742 46.6875L 216.562 47.3438L 216.562 50.2969L 204.305 50.2969L 204.305 47.3438L 208.125 46.6875L 208.125 28.5703L 204.305 27.9141ZM 248.695 27.9141L 246.422 28.2656L 236.766 54.1875C 236.125 55.8906 235.203 57.375 234 58.6406C 232.797 59.9062 231.18 60.5391 229.148 60.5391C 228.789 60.5391 228.32 60.4922 227.742 60.3984C 227.164 60.3203 226.719 60.2422 226.406 60.1641L 226.875 56.5312C 226.781 56.5156 227.055 56.5312 227.695 56.5781C 228.352 56.625 228.766 56.6484 228.938 56.6484C 229.922 56.6484 230.719 56.2188 231.328 55.3594C 231.938 54.5156 232.469 53.5391 232.922 52.4297L 234.023 49.8047L 225.656 28.2891L 223.336 27.9141L 223.336 24.9375L 233.578 24.9375L 233.578 27.9141L 230.719 28.3828L 235.102 40.8984L 235.945 44.1328L 236.086 44.1328L 241.359 28.3828L 238.477 27.9141L 238.477 24.9375L 248.695 24.9375L 248.695 27.9141Z"/>
</defs>
</svg>
